<?xml version="1.0" encoding="UTF-8" standalone="no"?>
<!DOCTYPE svg PUBLIC "-//W3C//DTD SVG 1.1//EN"
 "http://www.w3.org/Graphics/SVG/1.1/DTD/svg11.dtd">
<!-- Generated by graphviz version 9.0.0 (20230911.1827)
 -->
<!-- Pages: 1 -->
<svg width="1242pt" height="365pt"
 viewBox="0.00 0.00 1242.00 365.00" xmlns="http://www.w3.org/2000/svg" xmlns:xlink="http://www.w3.org/1999/xlink">
<g id="graph0" class="graph" transform="scale(1 1) rotate(0) translate(4 361)">
<polygon fill="white" stroke="none" points="-4,4 -4,-361 1238,-361 1238,4 -4,4"/>
<g id="clust1" class="cluster">
<title>cluster~</title>
<path fill="none" stroke="black" stroke-width="2.6" d="M20,-8C20,-8 1214,-8 1214,-8 1220,-8 1226,-14 1226,-20 1226,-20 1226,-337 1226,-337 1226,-343 1220,-349 1214,-349 1214,-349 20,-349 20,-349 14,-349 8,-343 8,-337 8,-337 8,-20 8,-20 8,-14 14,-8 20,-8"/>
<text text-anchor="middle" x="617" y="-332.65" font-family="Arial Black" font-size="13.00">dio</text>
</g>
<g id="clust2" class="cluster">
<title>cluster~/lib</title>
<path fill="none" stroke="black" stroke-width="2.6" d="M28,-16C28,-16 1206,-16 1206,-16 1212,-16 1218,-22 1218,-28 1218,-28 1218,-306 1218,-306 1218,-312 1212,-318 1206,-318 1206,-318 28,-318 28,-318 22,-318 16,-312 16,-306 16,-306 16,-28 16,-28 16,-22 22,-16 28,-16"/>
<text text-anchor="middle" x="617" y="-301.65" font-family="Arial Black" font-size="13.00">lib</text>
</g>
<g id="clust3" class="cluster">
<title>cluster~/lib/src</title>
<path fill="none" stroke="black" stroke-width="2.6" d="M36,-24C36,-24 1198,-24 1198,-24 1204,-24 1210,-30 1210,-36 1210,-36 1210,-231 1210,-231 1210,-237 1204,-243 1198,-243 1198,-243 36,-243 36,-243 30,-243 24,-237 24,-231 24,-231 24,-36 24,-36 24,-30 30,-24 36,-24"/>
<text text-anchor="middle" x="617" y="-226.65" font-family="Arial Black" font-size="13.00">src</text>
</g>
<!-- /lib/sentry_dio.dart -->
<g id="node1" class="node">
<title>/lib/sentry_dio.dart</title>
<path fill="Lavender" stroke="black" stroke-width="1.3" d="M355.5,-287C355.5,-287 294.5,-287 294.5,-287 288.5,-287 282.5,-281 282.5,-275 282.5,-275 282.5,-263 282.5,-263 282.5,-257 288.5,-251 294.5,-251 294.5,-251 355.5,-251 355.5,-251 361.5,-251 367.5,-257 367.5,-263 367.5,-263 367.5,-275 367.5,-275 367.5,-281 361.5,-287 355.5,-287"/>
<text text-anchor="middle" x="325" y="-263.75" font-family="Arial" font-size="15.00">sentry_dio</text>
</g>
<!-- /lib/src/dio_event_processor.dart -->
<g id="node3" class="node">
<title>/lib/src/dio_event_processor.dart</title>
<path fill="Lavender" stroke="black" stroke-width="1.3" d="M174.38,-140C174.38,-140 43.62,-140 43.62,-140 37.62,-140 31.62,-134 31.62,-128 31.62,-128 31.62,-116 31.62,-116 31.62,-110 37.62,-104 43.62,-104 43.62,-104 174.38,-104 174.38,-104 180.38,-104 186.38,-110 186.38,-116 186.38,-116 186.38,-128 186.38,-128 186.38,-134 180.38,-140 174.38,-140"/>
<text text-anchor="middle" x="109" y="-116.75" font-family="Arial" font-size="15.00">dio_event_processor</text>
</g>
<!-- /lib/sentry_dio.dart&#45;&gt;/lib/src/dio_event_processor.dart -->
<g id="edge2" class="edge">
<title>/lib/sentry_dio.dart&#45;&gt;/lib/src/dio_event_processor.dart</title>
<path fill="none" stroke="black" stroke-width="1.3" stroke-dasharray="5,2" d="M298.95,-250.51C260.41,-224.64 188.1,-176.1 144.67,-146.94"/>
<polygon fill="black" stroke="black" stroke-width="1.3" points="146.7,-144.09 136.44,-141.42 142.8,-149.9 146.7,-144.09"/>
</g>
<!-- /lib/src/sentry_dio_extension.dart -->
<g id="node4" class="node">
<title>/lib/src/sentry_dio_extension.dart</title>
<path fill="Lavender" stroke="black" stroke-width="1.3" d="M536.5,-212C536.5,-212 403.5,-212 403.5,-212 397.5,-212 391.5,-206 391.5,-200 391.5,-200 391.5,-188 391.5,-188 391.5,-182 397.5,-176 403.5,-176 403.5,-176 536.5,-176 536.5,-176 542.5,-176 548.5,-182 548.5,-188 548.5,-188 548.5,-200 548.5,-200 548.5,-206 542.5,-212 536.5,-212"/>
<text text-anchor="middle" x="470" y="-188.75" font-family="Arial" font-size="15.00">sentry_dio_extension</text>
</g>
<!-- /lib/sentry_dio.dart&#45;&gt;/lib/src/sentry_dio_extension.dart -->
<g id="edge1" class="edge">
<title>/lib/sentry_dio.dart&#45;&gt;/lib/src/sentry_dio_extension.dart</title>
<path fill="none" stroke="black" stroke-width="1.3" stroke-dasharray="5,2" d="M367.74,-252.06C374.59,-249.21 381.55,-246.15 388,-243 403.01,-235.68 418.96,-226.65 432.77,-218.4"/>
<polygon fill="black" stroke="black" stroke-width="1.3" points="434.44,-221.48 441.18,-213.31 430.81,-215.49 434.44,-221.48"/>
</g>
<!-- /lib/src/tracing_client_adapter.dart -->
<g id="node2" class="node">
<title>/lib/src/tracing_client_adapter.dart</title>
<path fill="Lavender" stroke="black" stroke-width="1.3" d="M876.5,-68C876.5,-68 737.5,-68 737.5,-68 731.5,-68 725.5,-62 725.5,-56 725.5,-56 725.5,-44 725.5,-44 725.5,-38 731.5,-32 737.5,-32 737.5,-32 876.5,-32 876.5,-32 882.5,-32 888.5,-38 888.5,-44 888.5,-44 888.5,-56 888.5,-56 888.5,-62 882.5,-68 876.5,-68"/>
<text text-anchor="middle" x="807" y="-44.75" font-family="Arial" font-size="15.00">tracing_client_adapter</text>
</g>
<!-- /lib/src/sentry_dio_extension.dart&#45;&gt;/lib/src/dio_event_processor.dart -->
<g id="edge4" class="edge">
<title>/lib/src/sentry_dio_extension.dart&#45;&gt;/lib/src/dio_event_processor.dart</title>
<path fill="none" stroke="black" stroke-width="1.3" d="M391.01,-176.6C390,-176.4 389,-176.2 388,-176 306.07,-159.87 282.67,-156.72 198.52,-140.66"/>
<polygon fill="black" stroke="black" stroke-width="1.3" points="199.22,-137.23 188.74,-138.79 197.9,-144.11 199.22,-137.23"/>
</g>
<!-- /lib/src/dio_error_extractor.dart -->
<g id="node5" class="node">
<title>/lib/src/dio_error_extractor.dart</title>
<path fill="Lavender" stroke="black" stroke-width="1.3" d="M335.75,-140C335.75,-140 216.25,-140 216.25,-140 210.25,-140 204.25,-134 204.25,-128 204.25,-128 204.25,-116 204.25,-116 204.25,-110 210.25,-104 216.25,-104 216.25,-104 335.75,-104 335.75,-104 341.75,-104 347.75,-110 347.75,-116 347.75,-116 347.75,-128 347.75,-128 347.75,-134 341.75,-140 335.75,-140"/>
<text text-anchor="middle" x="276" y="-116.75" font-family="Arial" font-size="15.00">dio_error_extractor</text>
</g>
<!-- /lib/src/sentry_dio_extension.dart&#45;&gt;/lib/src/dio_error_extractor.dart -->
<g id="edge3" class="edge">
<title>/lib/src/sentry_dio_extension.dart&#45;&gt;/lib/src/dio_error_extractor.dart</title>
<path fill="none" stroke="black" stroke-width="1.3" d="M421.55,-175.52C395.41,-166.08 362.93,-154.37 335.29,-144.39"/>
<polygon fill="black" stroke="black" stroke-width="1.3" points="336.62,-141.15 326.02,-141.05 334.24,-147.74 336.62,-141.15"/>
</g>
<!-- /lib/src/version.dart -->
<g id="node6" class="node">
<title>/lib/src/version.dart</title>
<path fill="Lavender" stroke="black" stroke-width="1.3" d="M418,-140C418,-140 378,-140 378,-140 372,-140 366,-134 366,-128 366,-128 366,-116 366,-116 366,-110 372,-104 378,-104 378,-104 418,-104 418,-104 424,-104 430,-110 430,-116 430,-116 430,-128 430,-128 430,-134 424,-140 418,-140"/>
<text text-anchor="middle" x="398" y="-116.75" font-family="Arial" font-size="15.00">version</text>
</g>
<!-- /lib/src/sentry_dio_extension.dart&#45;&gt;/lib/src/version.dart -->
<g id="edge9" class="edge">
<title>/lib/src/sentry_dio_extension.dart&#45;&gt;/lib/src/version.dart</title>
<path fill="none" stroke="black" stroke-width="1.3" d="M452.2,-175.7C443.81,-167.54 433.62,-157.63 424.36,-148.62"/>
<polygon fill="black" stroke="black" stroke-width="1.3" points="426.86,-146.18 417.25,-141.72 421.98,-151.2 426.86,-146.18"/>
</g>
<!-- /lib/src/failed_request_interceptor.dart -->
<g id="node7" class="node">
<title>/lib/src/failed_request_interceptor.dart</title>
<path fill="Lavender" stroke="black" stroke-width="1.3" d="M625.62,-140C625.62,-140 460.38,-140 460.38,-140 454.38,-140 448.38,-134 448.38,-128 448.38,-128 448.38,-116 448.38,-116 448.38,-110 454.38,-104 460.38,-104 460.38,-104 625.62,-104 625.62,-104 631.62,-104 637.62,-110 637.62,-116 637.62,-116 637.62,-128 637.62,-128 637.62,-134 631.62,-140 625.62,-140"/>
<text text-anchor="middle" x="543" y="-116.75" font-family="Arial" font-size="15.00">failed_request_interceptor</text>
</g>
<!-- /lib/src/sentry_dio_extension.dart&#45;&gt;/lib/src/failed_request_interceptor.dart -->
<g id="edge6" class="edge">
<title>/lib/src/sentry_dio_extension.dart&#45;&gt;/lib/src/failed_request_interceptor.dart</title>
<path fill="none" stroke="black" stroke-width="1.3" d="M488.04,-175.7C496.56,-167.54 506.88,-157.63 516.28,-148.62"/>
<polygon fill="black" stroke="black" stroke-width="1.3" points="518.69,-151.16 523.49,-141.71 513.85,-146.1 518.69,-151.16"/>
</g>
<!-- /lib/src/sentry_transformer.dart -->
<g id="node8" class="node">
<title>/lib/src/sentry_transformer.dart</title>
<path fill="Lavender" stroke="black" stroke-width="1.3" d="M786.75,-140C786.75,-140 667.25,-140 667.25,-140 661.25,-140 655.25,-134 655.25,-128 655.25,-128 655.25,-116 655.25,-116 655.25,-110 661.25,-104 667.25,-104 667.25,-104 786.75,-104 786.75,-104 792.75,-104 798.75,-110 798.75,-116 798.75,-116 798.75,-128 798.75,-128 798.75,-134 792.75,-140 786.75,-140"/>
<text text-anchor="middle" x="727" y="-116.75" font-family="Arial" font-size="15.00">sentry_transformer</text>
</g>
<!-- /lib/src/sentry_dio_extension.dart&#45;&gt;/lib/src/sentry_transformer.dart -->
<g id="edge7" class="edge">
<title>/lib/src/sentry_dio_extension.dart&#45;&gt;/lib/src/sentry_transformer.dart</title>
<path fill="none" stroke="black" stroke-width="1.3" d="M534.19,-175.52C569.89,-165.79 614.52,-153.64 651.85,-143.47"/>
<polygon fill="black" stroke="black" stroke-width="1.3" points="652.56,-146.9 661.29,-140.9 650.72,-140.15 652.56,-146.9"/>
</g>
<!-- /lib/src/sentry_dio_client_adapter.dart -->
<g id="node9" class="node">
<title>/lib/src/sentry_dio_client_adapter.dart</title>
<path fill="Lavender" stroke="black" stroke-width="1.3" d="M991.5,-140C991.5,-140 828.5,-140 828.5,-140 822.5,-140 816.5,-134 816.5,-128 816.5,-128 816.5,-116 816.5,-116 816.5,-110 822.5,-104 828.5,-104 828.5,-104 991.5,-104 991.5,-104 997.5,-104 1003.5,-110 1003.5,-116 1003.5,-116 1003.5,-128 1003.5,-128 1003.5,-134 997.5,-140 991.5,-140"/>
<text text-anchor="middle" x="910" y="-116.75" font-family="Arial" font-size="15.00">sentry_dio_client_adapter</text>
</g>
<!-- /lib/src/sentry_dio_extension.dart&#45;&gt;/lib/src/sentry_dio_client_adapter.dart -->
<g id="edge8" class="edge">
<title>/lib/src/sentry_dio_extension.dart&#45;&gt;/lib/src/sentry_dio_client_adapter.dart</title>
<path fill="none" stroke="black" stroke-width="1.3" d="M548.91,-180.85C614.69,-170.66 711.21,-155.61 804.43,-140.57"/>
<polygon fill="black" stroke="black" stroke-width="1.3" points="804.82,-144.05 814.13,-139 803.7,-137.14 804.82,-144.05"/>
</g>
<!-- /lib/src/dio_stacktrace_extractor.dart -->
<g id="node10" class="node">
<title>/lib/src/dio_stacktrace_extractor.dart</title>
<path fill="Lavender" stroke="black" stroke-width="1.3" d="M1190.12,-140C1190.12,-140 1033.88,-140 1033.88,-140 1027.88,-140 1021.88,-134 1021.88,-128 1021.88,-128 1021.88,-116 1021.88,-116 1021.88,-110 1027.88,-104 1033.88,-104 1033.88,-104 1190.12,-104 1190.12,-104 1196.12,-104 1202.12,-110 1202.12,-116 1202.12,-116 1202.12,-128 1202.12,-128 1202.12,-134 1196.12,-140 1190.12,-140"/>
<text text-anchor="middle" x="1112" y="-116.75" font-family="Arial" font-size="15.00">dio_stacktrace_extractor</text>
</g>
<!-- /lib/src/sentry_dio_extension.dart&#45;&gt;/lib/src/dio_stacktrace_extractor.dart -->
<g id="edge5" class="edge">
<title>/lib/src/sentry_dio_extension.dart&#45;&gt;/lib/src/dio_stacktrace_extractor.dart</title>
<path fill="none" stroke="black" stroke-width="1.3" d="M548.89,-187.11C652.37,-178.98 839.83,-162.87 1009.72,-140.39"/>
<polygon fill="black" stroke="black" stroke-width="1.3" points="1010,-143.88 1019.45,-139.09 1009.08,-136.94 1010,-143.88"/>
</g>
<!-- /lib/src/sentry_dio_client_adapter.dart&#45;&gt;/lib/src/tracing_client_adapter.dart -->
<g id="edge10" class="edge">
<title>/lib/src/sentry_dio_client_adapter.dart&#45;&gt;/lib/src/tracing_client_adapter.dart</title>
<path fill="none" stroke="black" stroke-width="1.3" d="M884.27,-103.52C871.52,-94.85 855.92,-84.25 842.09,-74.85"/>
<polygon fill="black" stroke="black" stroke-width="1.3" points="844.26,-72.09 834.03,-69.37 840.33,-77.88 844.26,-72.09"/>
</g>
<!-- /lib/src/breadcrumb_client_adapter.dart -->
<g id="node11" class="node">
<title>/lib/src/breadcrumb_client_adapter.dart</title>
<path fill="Lavender" stroke="black" stroke-width="1.3" d="M1093.12,-68C1093.12,-68 918.88,-68 918.88,-68 912.88,-68 906.88,-62 906.88,-56 906.88,-56 906.88,-44 906.88,-44 906.88,-38 912.88,-32 918.88,-32 918.88,-32 1093.12,-32 1093.12,-32 1099.12,-32 1105.12,-38 1105.12,-44 1105.12,-44 1105.12,-56 1105.12,-56 1105.12,-62 1099.12,-68 1093.12,-68"/>
<text text-anchor="middle" x="1006" y="-44.75" font-family="Arial" font-size="15.00">breadcrumb_client_adapter</text>
</g>
<!-- /lib/src/sentry_dio_client_adapter.dart&#45;&gt;/lib/src/breadcrumb_client_adapter.dart -->
<g id="edge11" class="edge">
<title>/lib/src/sentry_dio_client_adapter.dart&#45;&gt;/lib/src/breadcrumb_client_adapter.dart</title>
<path fill="none" stroke="black" stroke-width="1.3" d="M933.73,-103.7C945.5,-95.11 959.91,-84.61 972.76,-75.24"/>
<polygon fill="black" stroke="black" stroke-width="1.3" points="974.6,-78.23 980.62,-69.51 970.48,-72.57 974.6,-78.23"/>
</g>
</g>
</svg>
