<?xml version="1.0" encoding="UTF-8" standalone="no"?>
<!DOCTYPE svg PUBLIC "-//W3C//DTD SVG 1.1//EN"
 "http://www.w3.org/Graphics/SVG/1.1/DTD/svg11.dtd">
<!-- Generated by graphviz version 2.43.0 (0)
 -->
<!-- Pages: 1 -->
<svg width="619pt" height="444pt"
 viewBox="0.00 0.00 618.82 444.00" xmlns="http://www.w3.org/2000/svg" xmlns:xlink="http://www.w3.org/1999/xlink">
<g id="graph0" class="graph" transform="scale(1 1) rotate(0) translate(4 440)">
<polygon fill="white" stroke="transparent" points="-4,4 -4,-440 614.82,-440 614.82,4 -4,4"/>
<g id="clust1" class="cluster">
<title>cluster~</title>
<path fill="none" stroke="black" stroke-width="2.6" d="M32.82,-8C32.82,-8 590.82,-8 590.82,-8 596.82,-8 602.82,-14 602.82,-20 602.82,-20 602.82,-416 602.82,-416 602.82,-422 596.82,-428 590.82,-428 590.82,-428 32.82,-428 32.82,-428 26.82,-428 20.82,-422 20.82,-416 20.82,-416 20.82,-20 20.82,-20 20.82,-14 26.82,-8 32.82,-8"/>
<text text-anchor="middle" x="311.82" y="-413.6" font-family="Arial Black" font-size="13.00">sqflite</text>
</g>
<g id="clust2" class="cluster">
<title>cluster~/lib</title>
<path fill="none" stroke="black" stroke-width="2.6" d="M40.82,-16C40.82,-16 582.82,-16 582.82,-16 588.82,-16 594.82,-22 594.82,-28 594.82,-28 594.82,-386 594.82,-386 594.82,-392 588.82,-398 582.82,-398 582.82,-398 40.82,-398 40.82,-398 34.82,-398 28.82,-392 28.82,-386 28.82,-386 28.82,-28 28.82,-28 28.82,-22 34.82,-16 40.82,-16"/>
<text text-anchor="middle" x="311.82" y="-383.6" font-family="Arial Black" font-size="13.00">lib</text>
</g>
<g id="clust3" class="cluster">
<title>cluster~/lib/src</title>
<path fill="none" stroke="black" stroke-width="2.6" d="M60.82,-24C60.82,-24 574.82,-24 574.82,-24 580.82,-24 586.82,-30 586.82,-36 586.82,-36 586.82,-312 586.82,-312 586.82,-318 580.82,-324 574.82,-324 574.82,-324 60.82,-324 60.82,-324 54.82,-324 48.82,-318 48.82,-312 48.82,-312 48.82,-36 48.82,-36 48.82,-30 54.82,-24 60.82,-24"/>
<text text-anchor="middle" x="317.82" y="-309.6" font-family="Arial Black" font-size="13.00">src</text>
</g>
<g id="clust4" class="cluster">
<title>cluster~/lib/src/utils</title>
<path fill="none" stroke="black" stroke-width="2.6" d="M105.82,-32C105.82,-32 335.82,-32 335.82,-32 341.82,-32 347.82,-38 347.82,-44 347.82,-44 347.82,-94 347.82,-94 347.82,-100 341.82,-106 335.82,-106 335.82,-106 105.82,-106 105.82,-106 99.82,-106 93.82,-100 93.82,-94 93.82,-94 93.82,-44 93.82,-44 93.82,-38 99.82,-32 105.82,-32"/>
<text text-anchor="middle" x="220.82" y="-91.6" font-family="Arial Black" font-size="13.00">utils</text>
</g>
<!-- /lib/src/sentry_batch.dart -->
<g id="node1" class="node">
<title>/lib/src/sentry_batch.dart</title>
<path fill="Lavender" stroke="black" stroke-width="1.3" d="M518.32,-294C518.32,-294 439.32,-294 439.32,-294 433.32,-294 427.32,-288 427.32,-282 427.32,-282 427.32,-270 427.32,-270 427.32,-264 433.32,-258 439.32,-258 439.32,-258 518.32,-258 518.32,-258 524.32,-258 530.32,-264 530.32,-270 530.32,-270 530.32,-282 530.32,-282 530.32,-288 524.32,-294 518.32,-294"/>
<text text-anchor="middle" x="478.82" y="-272.5" font-family="Arial" font-size="15.00">sentry_batch</text>
</g>
<!-- /lib/src/sentry_database.dart -->
<g id="node2" class="node">
<title>/lib/src/sentry_database.dart</title>
<path fill="Lavender" stroke="black" stroke-width="1.3" d="M309.82,-222C309.82,-222 205.82,-222 205.82,-222 199.82,-222 193.82,-216 193.82,-210 193.82,-210 193.82,-198 193.82,-198 193.82,-192 199.82,-186 205.82,-186 205.82,-186 309.82,-186 309.82,-186 315.82,-186 321.82,-192 321.82,-198 321.82,-198 321.82,-210 321.82,-210 321.82,-216 315.82,-222 309.82,-222"/>
<text text-anchor="middle" x="257.82" y="-200.5" font-family="Arial" font-size="15.00">sentry_database</text>
</g>
<!-- /lib/src/sentry_batch.dart&#45;&gt;/lib/src/sentry_database.dart -->
<g id="edge1" class="edge">
<title>/lib/src/sentry_batch.dart&#45;&gt;/lib/src/sentry_database.dart</title>
<path fill="none" stroke="black" stroke-width="1.3" d="M427.28,-258.68C395.71,-248.68 355.05,-235.8 321.47,-225.16"/>
<polygon fill="black" stroke="black" stroke-width="1.3" points="322.34,-221.76 311.75,-222.08 320.23,-228.44 322.34,-221.76"/>
</g>
<!-- /lib/src/utils/sentry_database_span_attributes.dart -->
<g id="node7" class="node">
<title>/lib/src/utils/sentry_database_span_attributes.dart</title>
<path fill="Lavender" stroke="black" stroke-width="1.3" d="M328.32,-76C328.32,-76 113.32,-76 113.32,-76 107.32,-76 101.32,-70 101.32,-64 101.32,-64 101.32,-52 101.32,-52 101.32,-46 107.32,-40 113.32,-40 113.32,-40 328.32,-40 328.32,-40 334.32,-40 340.32,-46 340.32,-52 340.32,-52 340.32,-64 340.32,-64 340.32,-70 334.32,-76 328.32,-76"/>
<text text-anchor="middle" x="220.82" y="-54.5" font-family="Arial" font-size="15.00">sentry_database_span_attributes</text>
</g>
<!-- /lib/src/sentry_batch.dart&#45;&gt;/lib/src/utils/sentry_database_span_attributes.dart -->
<g id="edge2" class="edge">
<title>/lib/src/sentry_batch.dart&#45;&gt;/lib/src/utils/sentry_database_span_attributes.dart</title>
<path fill="none" stroke="black" stroke-width="1.3" d="M501.26,-257.88C539.26,-226.89 608.44,-160.38 568.82,-114 540.73,-81.12 437.5,-67.78 350.71,-62.43"/>
<polygon fill="black" stroke="black" stroke-width="1.3" points="350.67,-58.92 340.48,-61.83 350.26,-65.91 350.67,-58.92"/>
</g>
<!-- /lib/src/sentry_database_executor.dart -->
<g id="node3" class="node">
<title>/lib/src/sentry_database_executor.dart</title>
<path fill="Lavender" stroke="black" stroke-width="1.3" d="M342.82,-150C342.82,-150 172.82,-150 172.82,-150 166.82,-150 160.82,-144 160.82,-138 160.82,-138 160.82,-126 160.82,-126 160.82,-120 166.82,-114 172.82,-114 172.82,-114 342.82,-114 342.82,-114 348.82,-114 354.82,-120 354.82,-126 354.82,-126 354.82,-138 354.82,-138 354.82,-144 348.82,-150 342.82,-150"/>
<text text-anchor="middle" x="257.82" y="-128.5" font-family="Arial" font-size="15.00">sentry_database_executor</text>
</g>
<!-- /lib/src/sentry_database.dart&#45;&gt;/lib/src/sentry_database_executor.dart -->
<g id="edge3" class="edge">
<title>/lib/src/sentry_database.dart&#45;&gt;/lib/src/sentry_database_executor.dart</title>
<path fill="none" stroke="black" stroke-width="1.3" d="M251.9,-185.7C251.11,-177.98 250.88,-168.71 251.22,-160.11"/>
<polygon fill="black" stroke="black" stroke-width="1.3" points="254.72,-160.32 251.92,-150.1 247.73,-159.84 254.72,-160.32"/>
</g>
<!-- /lib/src/version.dart -->
<g id="node4" class="node">
<title>/lib/src/version.dart</title>
<path fill="Lavender" stroke="black" stroke-width="1.3" d="M110.32,-150C110.32,-150 69.32,-150 69.32,-150 63.32,-150 57.32,-144 57.32,-138 57.32,-138 57.32,-126 57.32,-126 57.32,-120 63.32,-114 69.32,-114 69.32,-114 110.32,-114 110.32,-114 116.32,-114 122.32,-120 122.32,-126 122.32,-126 122.32,-138 122.32,-138 122.32,-144 116.32,-150 110.32,-150"/>
<text text-anchor="middle" x="89.82" y="-128.5" font-family="Arial" font-size="15.00">version</text>
</g>
<!-- /lib/src/sentry_database.dart&#45;&gt;/lib/src/version.dart -->
<g id="edge5" class="edge">
<title>/lib/src/sentry_database.dart&#45;&gt;/lib/src/version.dart</title>
<path fill="none" stroke="black" stroke-width="1.3" d="M216.72,-185.88C190.97,-175.14 157.86,-161.35 131.92,-150.54"/>
<polygon fill="black" stroke="black" stroke-width="1.3" points="132.93,-147.17 122.35,-146.56 130.24,-153.63 132.93,-147.17"/>
</g>
<!-- /lib/src/sentry_sqflite_transaction.dart -->
<g id="node6" class="node">
<title>/lib/src/sentry_sqflite_transaction.dart</title>
<path fill="Lavender" stroke="black" stroke-width="1.3" d="M547.32,-150C547.32,-150 384.32,-150 384.32,-150 378.32,-150 372.32,-144 372.32,-138 372.32,-138 372.32,-126 372.32,-126 372.32,-120 378.32,-114 384.32,-114 384.32,-114 547.32,-114 547.32,-114 553.32,-114 559.32,-120 559.32,-126 559.32,-126 559.32,-138 559.32,-138 559.32,-144 553.32,-150 547.32,-150"/>
<text text-anchor="middle" x="465.82" y="-128.5" font-family="Arial" font-size="15.00">sentry_sqflite_transaction</text>
</g>
<!-- /lib/src/sentry_database.dart&#45;&gt;/lib/src/sentry_sqflite_transaction.dart -->
<g id="edge4" class="edge">
<title>/lib/src/sentry_database.dart&#45;&gt;/lib/src/sentry_sqflite_transaction.dart</title>
<path fill="none" stroke="black" stroke-width="1.3" d="M308.44,-185.97C337.62,-176.14 374.51,-163.73 405.23,-153.39"/>
<polygon fill="black" stroke="black" stroke-width="1.3" points="406.61,-156.62 414.98,-150.11 404.38,-149.98 406.61,-156.62"/>
</g>
<!-- /lib/src/sentry_database.dart&#45;&gt;/lib/src/utils/sentry_database_span_attributes.dart -->
<g id="edge6" class="edge">
<title>/lib/src/sentry_database.dart&#45;&gt;/lib/src/utils/sentry_database_span_attributes.dart</title>
<path fill="none" stroke="black" stroke-width="1.3" d="M196.41,-185.95C178.98,-177.97 161.99,-166.45 151.82,-150 143.41,-136.39 144.88,-128.41 151.82,-114 157.97,-101.23 168.69,-90.5 179.87,-82.01"/>
<polygon fill="black" stroke="black" stroke-width="1.3" points="181.9,-84.87 188.04,-76.23 177.86,-79.15 181.9,-84.87"/>
</g>
<!-- /lib/src/sentry_database_executor.dart&#45;&gt;/lib/src/sentry_batch.dart -->
<g id="edge7" class="edge">
<title>/lib/src/sentry_database_executor.dart&#45;&gt;/lib/src/sentry_batch.dart</title>
<path fill="none" stroke="black" stroke-width="1.3" d="M284.57,-150.19C324.45,-175.81 399.52,-224.05 443.75,-252.46"/>
<polygon fill="black" stroke="black" stroke-width="1.3" points="441.86,-255.41 452.16,-257.87 445.64,-249.52 441.86,-255.41"/>
</g>
<!-- /lib/src/sentry_database_executor.dart&#45;&gt;/lib/src/sentry_database.dart -->
<g id="edge8" class="edge">
<title>/lib/src/sentry_database_executor.dart&#45;&gt;/lib/src/sentry_database.dart</title>
<path fill="none" stroke="black" stroke-width="1.3" d="M263.71,-150.1C264.52,-157.79 264.76,-167.05 264.42,-175.67"/>
<polygon fill="black" stroke="black" stroke-width="1.3" points="260.93,-175.48 263.74,-185.7 267.91,-175.96 260.93,-175.48"/>
</g>
<!-- /lib/src/sentry_database_executor.dart&#45;&gt;/lib/src/utils/sentry_database_span_attributes.dart -->
<g id="edge9" class="edge">
<title>/lib/src/sentry_database_executor.dart&#45;&gt;/lib/src/utils/sentry_database_span_attributes.dart</title>
<path fill="none" stroke="black" stroke-width="1.3" d="M249.05,-113.94C244.69,-105.45 239.32,-95.01 234.44,-85.51"/>
<polygon fill="black" stroke="black" stroke-width="1.3" points="237.47,-83.74 229.78,-76.44 231.24,-86.93 237.47,-83.74"/>
</g>
<!-- /lib/src/sentry_sqflite_database_factory.dart -->
<g id="node5" class="node">
<title>/lib/src/sentry_sqflite_database_factory.dart</title>
<path fill="Lavender" stroke="black" stroke-width="1.3" d="M397.32,-294C397.32,-294 192.32,-294 192.32,-294 186.32,-294 180.32,-288 180.32,-282 180.32,-282 180.32,-270 180.32,-270 180.32,-264 186.32,-258 192.32,-258 192.32,-258 397.32,-258 397.32,-258 403.32,-258 409.32,-264 409.32,-270 409.32,-270 409.32,-282 409.32,-282 409.32,-288 403.32,-294 397.32,-294"/>
<text text-anchor="middle" x="294.82" y="-272.5" font-family="Arial" font-size="15.00">sentry_sqflite_database_factory</text>
</g>
<!-- /lib/src/sentry_sqflite_database_factory.dart&#45;&gt;/lib/src/sentry_database.dart -->
<g id="edge10" class="edge">
<title>/lib/src/sentry_sqflite_database_factory.dart&#45;&gt;/lib/src/sentry_database.dart</title>
<path fill="none" stroke="black" stroke-width="1.3" d="M285.67,-257.7C281.42,-249.64 276.26,-239.89 271.55,-230.98"/>
<polygon fill="black" stroke="black" stroke-width="1.3" points="274.63,-229.31 266.86,-222.1 268.44,-232.58 274.63,-229.31"/>
</g>
<!-- /lib/src/sentry_sqflite_transaction.dart&#45;&gt;/lib/src/sentry_batch.dart -->
<g id="edge11" class="edge">
<title>/lib/src/sentry_sqflite_transaction.dart&#45;&gt;/lib/src/sentry_batch.dart</title>
<path fill="none" stroke="black" stroke-width="1.3" d="M467.39,-150.19C469.61,-174.42 473.68,-218.89 476.32,-247.68"/>
<polygon fill="black" stroke="black" stroke-width="1.3" points="472.85,-248.23 477.25,-257.87 479.82,-247.59 472.85,-248.23"/>
</g>
<!-- /lib/sentry_sqflite.dart -->
<g id="node9" class="node">
<title>/lib/sentry_sqflite.dart</title>
<path fill="Lavender" stroke="black" stroke-width="1.3" d="M427.32,-368C427.32,-368 346.32,-368 346.32,-368 340.32,-368 334.32,-362 334.32,-356 334.32,-356 334.32,-344 334.32,-344 334.32,-338 340.32,-332 346.32,-332 346.32,-332 427.32,-332 427.32,-332 433.32,-332 439.32,-338 439.32,-344 439.32,-344 439.32,-356 439.32,-356 439.32,-362 433.32,-368 427.32,-368"/>
<text text-anchor="middle" x="386.82" y="-346.5" font-family="Arial" font-size="15.00">sentry_sqflite</text>
</g>
<!-- /lib/src/utils/sentry_database_span_attributes.dart&#45;&gt;/lib/sentry_sqflite.dart -->
<g id="edge12" class="edge">
<title>/lib/src/utils/sentry_database_span_attributes.dart&#45;&gt;/lib/sentry_sqflite.dart</title>
<path fill="none" stroke="black" stroke-width="1.3" d="M101.26,-74.1C79.2,-82.44 58.76,-95.04 44.82,-114 -10.47,-189.2 -18.73,-255.64 44.82,-324 63.38,-343.96 230.4,-348.16 323.98,-348.93"/>
<polygon fill="black" stroke="black" stroke-width="1.3" points="324.16,-352.43 334.18,-349 324.21,-345.43 324.16,-352.43"/>
</g>
<!-- /lib/src/sentry_sqflite.dart -->
<g id="node8" class="node">
<title>/lib/src/sentry_sqflite.dart</title>
<path fill="Lavender" stroke="black" stroke-width="1.3" d="M150.32,-294C150.32,-294 69.32,-294 69.32,-294 63.32,-294 57.32,-288 57.32,-282 57.32,-282 57.32,-270 57.32,-270 57.32,-264 63.32,-258 69.32,-258 69.32,-258 150.32,-258 150.32,-258 156.32,-258 162.32,-264 162.32,-270 162.32,-270 162.32,-282 162.32,-282 162.32,-288 156.32,-294 150.32,-294"/>
<text text-anchor="middle" x="109.82" y="-272.5" font-family="Arial" font-size="15.00">sentry_sqflite</text>
</g>
<!-- /lib/src/sentry_sqflite.dart&#45;&gt;/lib/src/sentry_database.dart -->
<g id="edge13" class="edge">
<title>/lib/src/sentry_sqflite.dart&#45;&gt;/lib/src/sentry_database.dart</title>
<path fill="none" stroke="black" stroke-width="1.3" d="M146.02,-257.88C166.08,-248.39 191.19,-236.51 212.53,-226.42"/>
<polygon fill="black" stroke="black" stroke-width="1.3" points="214.19,-229.51 221.73,-222.07 211.2,-223.18 214.19,-229.51"/>
</g>
<!-- /lib/sentry_sqflite.dart&#45;&gt;/lib/src/sentry_batch.dart -->
<g id="edge17" class="edge">
<title>/lib/sentry_sqflite.dart&#45;&gt;/lib/src/sentry_batch.dart</title>
<path fill="none" stroke="black" stroke-width="1.3" stroke-dasharray="5,2" d="M408.86,-331.79C412.2,-329.18 415.6,-326.52 418.82,-324 428.57,-316.37 439.21,-308.04 448.79,-300.54"/>
<polygon fill="black" stroke="black" stroke-width="1.3" points="451.17,-303.12 456.88,-294.2 446.85,-297.61 451.17,-303.12"/>
</g>
<!-- /lib/sentry_sqflite.dart&#45;&gt;/lib/src/sentry_database.dart -->
<g id="edge14" class="edge">
<title>/lib/sentry_sqflite.dart&#45;&gt;/lib/src/sentry_database.dart</title>
<path fill="none" stroke="black" stroke-width="1.3" stroke-dasharray="5,2" d="M439.44,-347.46C478.46,-345.08 527.01,-339.07 539.82,-324 558.82,-301.65 558.76,-280.4 539.82,-258 510.56,-223.41 389.07,-230.74 332.04,-222.88"/>
<polygon fill="black" stroke="black" stroke-width="1.3" points="332.3,-219.37 321.85,-221.16 331.13,-226.28 332.3,-219.37"/>
</g>
<!-- /lib/sentry_sqflite.dart&#45;&gt;/lib/src/sentry_sqflite_database_factory.dart -->
<g id="edge16" class="edge">
<title>/lib/sentry_sqflite.dart&#45;&gt;/lib/src/sentry_sqflite_database_factory.dart</title>
<path fill="none" stroke="black" stroke-width="1.3" stroke-dasharray="5,2" d="M365.02,-331.94C352.96,-322.5 337.8,-310.64 324.66,-300.35"/>
<polygon fill="black" stroke="black" stroke-width="1.3" points="326.82,-297.6 316.78,-294.19 322.5,-303.11 326.82,-297.6"/>
</g>
<!-- /lib/sentry_sqflite.dart&#45;&gt;/lib/src/sentry_sqflite_transaction.dart -->
<g id="edge18" class="edge">
<title>/lib/sentry_sqflite.dart&#45;&gt;/lib/src/sentry_sqflite_transaction.dart</title>
<path fill="none" stroke="black" stroke-width="1.3" stroke-dasharray="5,2" d="M439.7,-348.22C482.35,-346.34 537.51,-340.64 551.82,-324 595.61,-273.08 531.46,-196.22 492.32,-157.35"/>
<polygon fill="black" stroke="black" stroke-width="1.3" points="494.47,-154.56 484.86,-150.1 489.59,-159.58 494.47,-154.56"/>
</g>
<!-- /lib/sentry_sqflite.dart&#45;&gt;/lib/src/sentry_sqflite.dart -->
<g id="edge15" class="edge">
<title>/lib/sentry_sqflite.dart&#45;&gt;/lib/src/sentry_sqflite.dart</title>
<path fill="none" stroke="black" stroke-width="1.3" stroke-dasharray="5,2" d="M334.06,-346.05C280.12,-342.48 200.32,-335.46 171.82,-324 158.34,-318.58 145.24,-309.42 134.58,-300.61"/>
<polygon fill="black" stroke="black" stroke-width="1.3" points="136.8,-297.9 126.94,-294.02 132.22,-303.2 136.8,-297.9"/>
</g>
</g>
</svg>
