<?xml version="1.0" encoding="UTF-8" standalone="no"?>
<!DOCTYPE svg PUBLIC "-//W3C//DTD SVG 1.1//EN"
 "http://www.w3.org/Graphics/SVG/1.1/DTD/svg11.dtd">
<!-- Generated by graphviz version 2.43.0 (0)
 -->
<!-- Pages: 1 -->
<svg width="626pt" height="516pt"
 viewBox="0.00 0.00 626.00 516.00" xmlns="http://www.w3.org/2000/svg" xmlns:xlink="http://www.w3.org/1999/xlink">
<g id="graph0" class="graph" transform="scale(1 1) rotate(0) translate(4 512)">
<polygon fill="white" stroke="transparent" points="-4,4 -4,-512 622,-512 622,4 -4,4"/>
<g id="clust1" class="cluster">
<title>cluster~</title>
<path fill="none" stroke="black" stroke-width="2.6" d="M20,-8C20,-8 598,-8 598,-8 604,-8 610,-14 610,-20 610,-20 610,-488 610,-488 610,-494 604,-500 598,-500 598,-500 20,-500 20,-500 14,-500 8,-494 8,-488 8,-488 8,-20 8,-20 8,-14 14,-8 20,-8"/>
<text text-anchor="middle" x="309" y="-485.6" font-family="Arial Black" font-size="13.00">sqflite</text>
</g>
<g id="clust2" class="cluster">
<title>cluster~/lib</title>
<path fill="none" stroke="black" stroke-width="2.6" d="M28,-16C28,-16 590,-16 590,-16 596,-16 602,-22 602,-28 602,-28 602,-458 602,-458 602,-464 596,-470 590,-470 590,-470 28,-470 28,-470 22,-470 16,-464 16,-458 16,-458 16,-28 16,-28 16,-22 22,-16 28,-16"/>
<text text-anchor="middle" x="309" y="-455.6" font-family="Arial Black" font-size="13.00">lib</text>
</g>
<g id="clust3" class="cluster">
<title>cluster~/lib/src</title>
<path fill="none" stroke="black" stroke-width="2.6" d="M68,-24C68,-24 582,-24 582,-24 588,-24 594,-30 594,-36 594,-36 594,-384 594,-384 594,-390 588,-396 582,-396 582,-396 68,-396 68,-396 62,-396 56,-390 56,-384 56,-384 56,-36 56,-36 56,-30 62,-24 68,-24"/>
<text text-anchor="middle" x="325" y="-381.6" font-family="Arial Black" font-size="13.00">src</text>
</g>
<g id="clust4" class="cluster">
<title>cluster~/lib/src/utils</title>
<path fill="none" stroke="black" stroke-width="2.6" d="M76,-32C76,-32 306,-32 306,-32 312,-32 318,-38 318,-44 318,-44 318,-94 318,-94 318,-100 312,-106 306,-106 306,-106 76,-106 76,-106 70,-106 64,-100 64,-94 64,-94 64,-44 64,-44 64,-38 70,-32 76,-32"/>
<text text-anchor="middle" x="191" y="-91.6" font-family="Arial Black" font-size="13.00">utils</text>
</g>
<!-- /lib/src/version.dart -->
<g id="node1" class="node">
<title>/lib/src/version.dart</title>
<path fill="Lavender" stroke="black" stroke-width="1.3" d="M349.5,-222C349.5,-222 308.5,-222 308.5,-222 302.5,-222 296.5,-216 296.5,-210 296.5,-210 296.5,-198 296.5,-198 296.5,-192 302.5,-186 308.5,-186 308.5,-186 349.5,-186 349.5,-186 355.5,-186 361.5,-192 361.5,-198 361.5,-198 361.5,-210 361.5,-210 361.5,-216 355.5,-222 349.5,-222"/>
<text text-anchor="middle" x="329" y="-200.5" font-family="Arial" font-size="15.00">version</text>
</g>
<!-- /lib/src/sentry_database.dart -->
<g id="node2" class="node">
<title>/lib/src/sentry_database.dart</title>
<path fill="Lavender" stroke="black" stroke-width="1.3" d="M354,-294C354,-294 250,-294 250,-294 244,-294 238,-288 238,-282 238,-282 238,-270 238,-270 238,-264 244,-258 250,-258 250,-258 354,-258 354,-258 360,-258 366,-264 366,-270 366,-270 366,-282 366,-282 366,-288 360,-294 354,-294"/>
<text text-anchor="middle" x="302" y="-272.5" font-family="Arial" font-size="15.00">sentry_database</text>
</g>
<!-- /lib/src/sentry_database.dart&#45;&gt;/lib/src/version.dart -->
<g id="edge3" class="edge">
<title>/lib/src/sentry_database.dart&#45;&gt;/lib/src/version.dart</title>
<path fill="none" stroke="black" stroke-width="1.3" d="M308.67,-257.7C311.71,-249.81 315.38,-240.3 318.76,-231.55"/>
<polygon fill="black" stroke="black" stroke-width="1.3" points="322.07,-232.69 322.4,-222.1 315.54,-230.17 322.07,-232.69"/>
</g>
<!-- /lib/src/sentry_database_executor.dart -->
<g id="node4" class="node">
<title>/lib/src/sentry_database_executor.dart</title>
<path fill="Lavender" stroke="black" stroke-width="1.3" d="M266,-222C266,-222 96,-222 96,-222 90,-222 84,-216 84,-210 84,-210 84,-198 84,-198 84,-192 90,-186 96,-186 96,-186 266,-186 266,-186 272,-186 278,-192 278,-198 278,-198 278,-210 278,-210 278,-216 272,-222 266,-222"/>
<text text-anchor="middle" x="181" y="-200.5" font-family="Arial" font-size="15.00">sentry_database_executor</text>
</g>
<!-- /lib/src/sentry_database.dart&#45;&gt;/lib/src/sentry_database_executor.dart -->
<g id="edge1" class="edge">
<title>/lib/src/sentry_database.dart&#45;&gt;/lib/src/sentry_database_executor.dart</title>
<path fill="none" stroke="black" stroke-width="1.3" d="M266.5,-257.88C249.72,-248.72 229.9,-237.34 213.52,-227.48"/>
<polygon fill="black" stroke="black" stroke-width="1.3" points="215.17,-224.4 204.81,-222.19 211.53,-230.38 215.17,-224.4"/>
</g>
<!-- /lib/src/utils/sentry_database_span_attributes.dart -->
<g id="node7" class="node">
<title>/lib/src/utils/sentry_database_span_attributes.dart</title>
<path fill="Lavender" stroke="black" stroke-width="1.3" d="M298.5,-76C298.5,-76 83.5,-76 83.5,-76 77.5,-76 71.5,-70 71.5,-64 71.5,-64 71.5,-52 71.5,-52 71.5,-46 77.5,-40 83.5,-40 83.5,-40 298.5,-40 298.5,-40 304.5,-40 310.5,-46 310.5,-52 310.5,-52 310.5,-64 310.5,-64 310.5,-70 304.5,-76 298.5,-76"/>
<text text-anchor="middle" x="191" y="-54.5" font-family="Arial" font-size="15.00">sentry_database_span_attributes</text>
</g>
<!-- /lib/src/sentry_database.dart&#45;&gt;/lib/src/utils/sentry_database_span_attributes.dart -->
<g id="edge4" class="edge">
<title>/lib/src/sentry_database.dart&#45;&gt;/lib/src/utils/sentry_database_span_attributes.dart</title>
<path fill="none" stroke="black" stroke-width="1.3" d="M237.94,-258.94C236.62,-258.63 235.3,-258.31 234,-258 163.52,-241.21 120.22,-278.61 75,-222 36.43,-173.72 107.51,-113.81 154.45,-81.76"/>
<polygon fill="black" stroke="black" stroke-width="1.3" points="156.53,-84.58 162.9,-76.11 152.64,-78.76 156.53,-84.58"/>
</g>
<!-- /lib/src/sentry_sqflite_transaction.dart -->
<g id="node8" class="node">
<title>/lib/src/sentry_sqflite_transaction.dart</title>
<path fill="Lavender" stroke="black" stroke-width="1.3" d="M574.5,-222C574.5,-222 411.5,-222 411.5,-222 405.5,-222 399.5,-216 399.5,-210 399.5,-210 399.5,-198 399.5,-198 399.5,-192 405.5,-186 411.5,-186 411.5,-186 574.5,-186 574.5,-186 580.5,-186 586.5,-192 586.5,-198 586.5,-198 586.5,-210 586.5,-210 586.5,-216 580.5,-222 574.5,-222"/>
<text text-anchor="middle" x="493" y="-200.5" font-family="Arial" font-size="15.00">sentry_sqflite_transaction</text>
</g>
<!-- /lib/src/sentry_database.dart&#45;&gt;/lib/src/sentry_sqflite_transaction.dart -->
<g id="edge2" class="edge">
<title>/lib/src/sentry_database.dart&#45;&gt;/lib/src/sentry_sqflite_transaction.dart</title>
<path fill="none" stroke="black" stroke-width="1.3" d="M348.72,-257.88C375.3,-248.14 408.76,-235.87 436.77,-225.61"/>
<polygon fill="black" stroke="black" stroke-width="1.3" points="438.24,-228.8 446.43,-222.07 435.83,-222.22 438.24,-228.8"/>
</g>
<!-- /lib/src/sentry_batch.dart -->
<g id="node3" class="node">
<title>/lib/src/sentry_batch.dart</title>
<path fill="Lavender" stroke="black" stroke-width="1.3" d="M291.5,-150C291.5,-150 212.5,-150 212.5,-150 206.5,-150 200.5,-144 200.5,-138 200.5,-138 200.5,-126 200.5,-126 200.5,-120 206.5,-114 212.5,-114 212.5,-114 291.5,-114 291.5,-114 297.5,-114 303.5,-120 303.5,-126 303.5,-126 303.5,-138 303.5,-138 303.5,-144 297.5,-150 291.5,-150"/>
<text text-anchor="middle" x="252" y="-128.5" font-family="Arial" font-size="15.00">sentry_batch</text>
</g>
<!-- /lib/src/sentry_batch.dart&#45;&gt;/lib/src/sentry_database.dart -->
<g id="edge5" class="edge">
<title>/lib/src/sentry_batch.dart&#45;&gt;/lib/src/sentry_database.dart</title>
<path fill="none" stroke="black" stroke-width="1.3" d="M303.64,-142.43C328.47,-149.84 356.04,-162.95 371,-186 379.71,-199.42 378.07,-207.65 371,-222 365.04,-234.09 354.85,-244.2 344.1,-252.23"/>
<polygon fill="black" stroke="black" stroke-width="1.3" points="342.06,-249.39 335.84,-257.96 346.05,-255.14 342.06,-249.39"/>
</g>
<!-- /lib/src/sentry_batch.dart&#45;&gt;/lib/src/utils/sentry_database_span_attributes.dart -->
<g id="edge6" class="edge">
<title>/lib/src/sentry_batch.dart&#45;&gt;/lib/src/utils/sentry_database_span_attributes.dart</title>
<path fill="none" stroke="black" stroke-width="1.3" d="M237.54,-113.94C230.06,-105.1 220.77,-94.14 212.46,-84.33"/>
<polygon fill="black" stroke="black" stroke-width="1.3" points="214.91,-81.81 205.78,-76.44 209.57,-86.33 214.91,-81.81"/>
</g>
<!-- /lib/src/sentry_database_executor.dart&#45;&gt;/lib/src/sentry_database.dart -->
<g id="edge8" class="edge">
<title>/lib/src/sentry_database_executor.dart&#45;&gt;/lib/src/sentry_database.dart</title>
<path fill="none" stroke="black" stroke-width="1.3" d="M216.62,-222.19C233.41,-231.35 253.24,-242.74 269.6,-252.59"/>
<polygon fill="black" stroke="black" stroke-width="1.3" points="267.93,-255.67 278.3,-257.88 271.57,-249.69 267.93,-255.67"/>
</g>
<!-- /lib/src/sentry_database_executor.dart&#45;&gt;/lib/src/sentry_batch.dart -->
<g id="edge7" class="edge">
<title>/lib/src/sentry_database_executor.dart&#45;&gt;/lib/src/sentry_batch.dart</title>
<path fill="none" stroke="black" stroke-width="1.3" d="M198.55,-185.7C207.23,-177.14 217.86,-166.66 227.35,-157.3"/>
<polygon fill="black" stroke="black" stroke-width="1.3" points="229.99,-159.62 234.65,-150.1 225.07,-154.63 229.99,-159.62"/>
</g>
<!-- /lib/src/sentry_database_executor.dart&#45;&gt;/lib/src/utils/sentry_database_span_attributes.dart -->
<g id="edge9" class="edge">
<title>/lib/src/sentry_database_executor.dart&#45;&gt;/lib/src/utils/sentry_database_span_attributes.dart</title>
<path fill="none" stroke="black" stroke-width="1.3" d="M182.19,-185.92C183.9,-161.23 187.09,-115.35 189.12,-86.04"/>
<polygon fill="black" stroke="black" stroke-width="1.3" points="192.61,-86.28 189.82,-76.06 185.63,-85.8 192.61,-86.28"/>
</g>
<!-- /lib/src/sentry_sqflite_database_factory.dart -->
<g id="node5" class="node">
<title>/lib/src/sentry_sqflite_database_factory.dart</title>
<path fill="Lavender" stroke="black" stroke-width="1.3" d="M404.5,-366C404.5,-366 199.5,-366 199.5,-366 193.5,-366 187.5,-360 187.5,-354 187.5,-354 187.5,-342 187.5,-342 187.5,-336 193.5,-330 199.5,-330 199.5,-330 404.5,-330 404.5,-330 410.5,-330 416.5,-336 416.5,-342 416.5,-342 416.5,-354 416.5,-354 416.5,-360 410.5,-366 404.5,-366"/>
<text text-anchor="middle" x="302" y="-344.5" font-family="Arial" font-size="15.00">sentry_sqflite_database_factory</text>
</g>
<!-- /lib/src/sentry_sqflite_database_factory.dart&#45;&gt;/lib/src/sentry_database.dart -->
<g id="edge10" class="edge">
<title>/lib/src/sentry_sqflite_database_factory.dart&#45;&gt;/lib/src/sentry_database.dart</title>
<path fill="none" stroke="black" stroke-width="1.3" d="M302,-329.7C302,-321.98 302,-312.71 302,-304.11"/>
<polygon fill="black" stroke="black" stroke-width="1.3" points="305.5,-304.1 302,-294.1 298.5,-304.1 305.5,-304.1"/>
</g>
<!-- /lib/src/sentry_sqflite.dart -->
<g id="node6" class="node">
<title>/lib/src/sentry_sqflite.dart</title>
<path fill="Lavender" stroke="black" stroke-width="1.3" d="M157.5,-366C157.5,-366 76.5,-366 76.5,-366 70.5,-366 64.5,-360 64.5,-354 64.5,-354 64.5,-342 64.5,-342 64.5,-336 70.5,-330 76.5,-330 76.5,-330 157.5,-330 157.5,-330 163.5,-330 169.5,-336 169.5,-342 169.5,-342 169.5,-354 169.5,-354 169.5,-360 163.5,-366 157.5,-366"/>
<text text-anchor="middle" x="117" y="-344.5" font-family="Arial" font-size="15.00">sentry_sqflite</text>
</g>
<!-- /lib/src/sentry_sqflite.dart&#45;&gt;/lib/src/sentry_database.dart -->
<g id="edge11" class="edge">
<title>/lib/src/sentry_sqflite.dart&#45;&gt;/lib/src/sentry_database.dart</title>
<path fill="none" stroke="black" stroke-width="1.3" d="M162.26,-329.88C188,-320.14 220.41,-307.87 247.54,-297.61"/>
<polygon fill="black" stroke="black" stroke-width="1.3" points="248.78,-300.88 256.89,-294.07 246.3,-294.33 248.78,-300.88"/>
</g>
<!-- /lib/sentry_sqflite.dart -->
<g id="node9" class="node">
<title>/lib/sentry_sqflite.dart</title>
<path fill="Lavender" stroke="black" stroke-width="1.3" d="M249.5,-440C249.5,-440 168.5,-440 168.5,-440 162.5,-440 156.5,-434 156.5,-428 156.5,-428 156.5,-416 156.5,-416 156.5,-410 162.5,-404 168.5,-404 168.5,-404 249.5,-404 249.5,-404 255.5,-404 261.5,-410 261.5,-416 261.5,-416 261.5,-428 261.5,-428 261.5,-434 255.5,-440 249.5,-440"/>
<text text-anchor="middle" x="209" y="-418.5" font-family="Arial" font-size="15.00">sentry_sqflite</text>
</g>
<!-- /lib/src/utils/sentry_database_span_attributes.dart&#45;&gt;/lib/sentry_sqflite.dart -->
<g id="edge12" class="edge">
<title>/lib/src/utils/sentry_database_span_attributes.dart&#45;&gt;/lib/sentry_sqflite.dart</title>
<path fill="none" stroke="black" stroke-width="1.3" d="M113.23,-76.04C90.92,-84.26 68.26,-96.34 52,-114 24,-144.41 25,-161.66 25,-203 25,-277 25,-277 25,-277 25,-330.49 5.16,-358.19 43,-396 57.4,-410.39 105.49,-416.52 146.23,-419.12"/>
<polygon fill="black" stroke="black" stroke-width="1.3" points="146.22,-422.62 156.41,-419.7 146.63,-415.63 146.22,-422.62"/>
</g>
<!-- /lib/src/sentry_sqflite_transaction.dart&#45;&gt;/lib/src/sentry_batch.dart -->
<g id="edge13" class="edge">
<title>/lib/src/sentry_sqflite_transaction.dart&#45;&gt;/lib/src/sentry_batch.dart</title>
<path fill="none" stroke="black" stroke-width="1.3" d="M434.35,-185.97C397.65,-175.3 350.43,-161.59 313.24,-150.79"/>
<polygon fill="black" stroke="black" stroke-width="1.3" points="314.11,-147.4 303.53,-147.97 312.16,-154.12 314.11,-147.4"/>
</g>
<!-- /lib/sentry_sqflite.dart&#45;&gt;/lib/src/sentry_database.dart -->
<g id="edge14" class="edge">
<title>/lib/sentry_sqflite.dart&#45;&gt;/lib/src/sentry_database.dart</title>
<path fill="none" stroke="black" stroke-width="1.3" stroke-dasharray="5,2" d="M261.58,-418.55C322.29,-415.17 415.23,-408.08 426,-396 445.52,-374.1 442.16,-354.48 426,-330 418.62,-318.82 393.06,-307.04 367.04,-297.44"/>
<polygon fill="black" stroke="black" stroke-width="1.3" points="368.06,-294.09 357.47,-294 365.7,-300.68 368.06,-294.09"/>
</g>
<!-- /lib/sentry_sqflite.dart&#45;&gt;/lib/src/sentry_batch.dart -->
<g id="edge17" class="edge">
<title>/lib/sentry_sqflite.dart&#45;&gt;/lib/src/sentry_batch.dart</title>
<path fill="none" stroke="black" stroke-width="1.3" stroke-dasharray="5,2" d="M156.44,-419.53C117.1,-417.2 67.94,-411.21 55,-396 35.99,-373.66 52.98,-359.26 55,-330 59.46,-265.54 32.84,-234.96 75,-186 109.73,-145.67 139.23,-163.86 190.62,-151.61"/>
<polygon fill="black" stroke="black" stroke-width="1.3" points="191.74,-154.93 200.48,-148.95 189.91,-148.17 191.74,-154.93"/>
</g>
<!-- /lib/sentry_sqflite.dart&#45;&gt;/lib/src/sentry_sqflite_database_factory.dart -->
<g id="edge16" class="edge">
<title>/lib/sentry_sqflite.dart&#45;&gt;/lib/src/sentry_sqflite_database_factory.dart</title>
<path fill="none" stroke="black" stroke-width="1.3" stroke-dasharray="5,2" d="M231.04,-403.94C243.23,-394.5 258.55,-382.64 271.83,-372.35"/>
<polygon fill="black" stroke="black" stroke-width="1.3" points="274.03,-375.08 279.8,-366.19 269.75,-369.54 274.03,-375.08"/>
</g>
<!-- /lib/sentry_sqflite.dart&#45;&gt;/lib/src/sentry_sqflite.dart -->
<g id="edge15" class="edge">
<title>/lib/sentry_sqflite.dart&#45;&gt;/lib/src/sentry_sqflite.dart</title>
<path fill="none" stroke="black" stroke-width="1.3" stroke-dasharray="5,2" d="M187.2,-403.94C175.14,-394.5 159.98,-382.64 146.84,-372.35"/>
<polygon fill="black" stroke="black" stroke-width="1.3" points="149,-369.6 138.97,-366.19 144.68,-375.11 149,-369.6"/>
</g>
<!-- /lib/sentry_sqflite.dart&#45;&gt;/lib/src/sentry_sqflite_transaction.dart -->
<g id="edge18" class="edge">
<title>/lib/sentry_sqflite.dart&#45;&gt;/lib/src/sentry_sqflite_transaction.dart</title>
<path fill="none" stroke="black" stroke-width="1.3" stroke-dasharray="5,2" d="M261.69,-421.79C320.64,-421.56 411.28,-417.55 437,-396 485.73,-355.17 493.34,-274.37 493.77,-232.15"/>
<polygon fill="black" stroke="black" stroke-width="1.3" points="497.27,-232.04 493.74,-222.05 490.27,-232.06 497.27,-232.04"/>
</g>
</g>
</svg>
