<?xml version="1.0" encoding="UTF-8" standalone="no"?>
<!DOCTYPE svg PUBLIC "-//W3C//DTD SVG 1.1//EN"
 "http://www.w3.org/Graphics/SVG/1.1/DTD/svg11.dtd">
<!-- Generated by graphviz version 9.0.0 (20230911.1827)
 -->
<!-- Pages: 1 -->
<svg width="234pt" height="293pt"
 viewBox="0.00 0.00 234.00 293.00" xmlns="http://www.w3.org/2000/svg" xmlns:xlink="http://www.w3.org/1999/xlink">
<g id="graph0" class="graph" transform="scale(1 1) rotate(0) translate(4 289)">
<polygon fill="white" stroke="none" points="-4,4 -4,-289 230,-289 230,4 -4,4"/>
<g id="clust1" class="cluster">
<title>cluster~</title>
<path fill="none" stroke="black" stroke-width="2.6" d="M20,-8C20,-8 206,-8 206,-8 212,-8 218,-14 218,-20 218,-20 218,-265 218,-265 218,-271 212,-277 206,-277 206,-277 20,-277 20,-277 14,-277 8,-271 8,-265 8,-265 8,-20 8,-20 8,-14 14,-8 20,-8"/>
<text text-anchor="middle" x="113" y="-260.65" font-family="Arial Black" font-size="13.00">logging</text>
</g>
<g id="clust2" class="cluster">
<title>cluster~/lib</title>
<path fill="none" stroke="black" stroke-width="2.6" d="M28,-16C28,-16 198,-16 198,-16 204,-16 210,-22 210,-28 210,-28 210,-234 210,-234 210,-240 204,-246 198,-246 198,-246 28,-246 28,-246 22,-246 16,-240 16,-234 16,-234 16,-28 16,-28 16,-22 22,-16 28,-16"/>
<text text-anchor="middle" x="113" y="-229.65" font-family="Arial Black" font-size="13.00">lib</text>
</g>
<g id="clust3" class="cluster">
<title>cluster~/lib/src</title>
<path fill="none" stroke="black" stroke-width="2.6" d="M36,-24C36,-24 190,-24 190,-24 196,-24 202,-30 202,-36 202,-36 202,-159 202,-159 202,-165 196,-171 190,-171 190,-171 36,-171 36,-171 30,-171 24,-165 24,-159 24,-159 24,-36 24,-36 24,-30 30,-24 36,-24"/>
<text text-anchor="middle" x="113" y="-154.65" font-family="Arial Black" font-size="13.00">src</text>
</g>
<!-- /lib/sentry_logging.dart -->
<g id="node1" class="node">
<title>/lib/sentry_logging.dart</title>
<path fill="Lavender" stroke="black" stroke-width="1.3" d="M157.38,-215C157.38,-215 68.62,-215 68.62,-215 62.62,-215 56.62,-209 56.62,-203 56.62,-203 56.62,-191 56.62,-191 56.62,-185 62.62,-179 68.62,-179 68.62,-179 157.38,-179 157.38,-179 163.38,-179 169.38,-185 169.38,-191 169.38,-191 169.38,-203 169.38,-203 169.38,-209 163.38,-215 157.38,-215"/>
<text text-anchor="middle" x="113" y="-191.75" font-family="Arial" font-size="15.00">sentry_logging</text>
</g>
<!-- /lib/src/logging_integration.dart -->
<g id="node4" class="node">
<title>/lib/src/logging_integration.dart</title>
<path fill="Lavender" stroke="black" stroke-width="1.3" d="M171.62,-140C171.62,-140 54.38,-140 54.38,-140 48.38,-140 42.38,-134 42.38,-128 42.38,-128 42.38,-116 42.38,-116 42.38,-110 48.38,-104 54.38,-104 54.38,-104 171.62,-104 171.62,-104 177.62,-104 183.62,-110 183.62,-116 183.62,-116 183.62,-128 183.62,-128 183.62,-134 177.62,-140 171.62,-140"/>
<text text-anchor="middle" x="113" y="-116.75" font-family="Arial" font-size="15.00">logging_integration</text>
</g>
<!-- /lib/sentry_logging.dart&#45;&gt;/lib/src/logging_integration.dart -->
<g id="edge1" class="edge">
<title>/lib/sentry_logging.dart&#45;&gt;/lib/src/logging_integration.dart</title>
<path fill="none" stroke="black" stroke-width="1.3" stroke-dasharray="5,2" d="M113,-178.7C113,-170.76 113,-161.12 113,-152.11"/>
<polygon fill="black" stroke="black" stroke-width="1.3" points="116.5,-152.4 113,-142.4 109.5,-152.4 116.5,-152.4"/>
</g>
<!-- /lib/src/extension.dart -->
<g id="node2" class="node">
<title>/lib/src/extension.dart</title>
<path fill="Lavender" stroke="black" stroke-width="1.3" d="M99.88,-68C99.88,-68 44.12,-68 44.12,-68 38.12,-68 32.12,-62 32.12,-56 32.12,-56 32.12,-44 32.12,-44 32.12,-38 38.12,-32 44.12,-32 44.12,-32 99.88,-32 99.88,-32 105.88,-32 111.88,-38 111.88,-44 111.88,-44 111.88,-56 111.88,-56 111.88,-62 105.88,-68 99.88,-68"/>
<text text-anchor="middle" x="72" y="-44.75" font-family="Arial" font-size="15.00">extension</text>
</g>
<!-- /lib/src/version.dart -->
<g id="node3" class="node">
<title>/lib/src/version.dart</title>
<path fill="Lavender" stroke="black" stroke-width="1.3" d="M182,-68C182,-68 142,-68 142,-68 136,-68 130,-62 130,-56 130,-56 130,-44 130,-44 130,-38 136,-32 142,-32 142,-32 182,-32 182,-32 188,-32 194,-38 194,-44 194,-44 194,-56 194,-56 194,-62 188,-68 182,-68"/>
<text text-anchor="middle" x="162" y="-44.75" font-family="Arial" font-size="15.00">version</text>
</g>
<!-- /lib/src/logging_integration.dart&#45;&gt;/lib/src/extension.dart -->
<g id="edge2" class="edge">
<title>/lib/src/logging_integration.dart&#45;&gt;/lib/src/extension.dart</title>
<path fill="none" stroke="black" stroke-width="1.3" d="M102.87,-103.7C98.4,-96.07 93.04,-86.92 88.05,-78.4"/>
<polygon fill="black" stroke="black" stroke-width="1.3" points="91.09,-76.66 83.01,-69.8 85.05,-80.2 91.09,-76.66"/>
</g>
<!-- /lib/src/logging_integration.dart&#45;&gt;/lib/src/version.dart -->
<g id="edge3" class="edge">
<title>/lib/src/logging_integration.dart&#45;&gt;/lib/src/version.dart</title>
<path fill="none" stroke="black" stroke-width="1.3" d="M125.11,-103.7C130.57,-95.9 137.14,-86.51 143.22,-77.83"/>
<polygon fill="black" stroke="black" stroke-width="1.3" points="146.03,-79.92 148.9,-69.72 140.3,-75.9 146.03,-79.92"/>
</g>
</g>
</svg>
