<?xml version="1.0" encoding="UTF-8" standalone="no"?>
<!DOCTYPE svg PUBLIC "-//W3C//DTD SVG 1.1//EN"
 "http://www.w3.org/Graphics/SVG/1.1/DTD/svg11.dtd">
<!-- Generated by graphviz version 2.43.0 (0)
 -->
<!-- Pages: 1 -->
<svg width="236pt" height="290pt"
 viewBox="0.00 0.00 236.00 290.00" xmlns="http://www.w3.org/2000/svg" xmlns:xlink="http://www.w3.org/1999/xlink">
<g id="graph0" class="graph" transform="scale(1 1) rotate(0) translate(4 286)">
<polygon fill="white" stroke="transparent" points="-4,4 -4,-286 232,-286 232,4 -4,4"/>
<g id="clust1" class="cluster">
<title>cluster~</title>
<path fill="none" stroke="black" stroke-width="2.6" d="M20,-8C20,-8 208,-8 208,-8 214,-8 220,-14 220,-20 220,-20 220,-262 220,-262 220,-268 214,-274 208,-274 208,-274 20,-274 20,-274 14,-274 8,-268 8,-262 8,-262 8,-20 8,-20 8,-14 14,-8 20,-8"/>
<text text-anchor="middle" x="114" y="-259.6" font-family="Arial Black" font-size="13.00">logging</text>
</g>
<g id="clust2" class="cluster">
<title>cluster~/lib</title>
<path fill="none" stroke="black" stroke-width="2.6" d="M28,-16C28,-16 200,-16 200,-16 206,-16 212,-22 212,-28 212,-28 212,-232 212,-232 212,-238 206,-244 200,-244 200,-244 28,-244 28,-244 22,-244 16,-238 16,-232 16,-232 16,-28 16,-28 16,-22 22,-16 28,-16"/>
<text text-anchor="middle" x="114" y="-229.6" font-family="Arial Black" font-size="13.00">lib</text>
</g>
<g id="clust3" class="cluster">
<title>cluster~/lib/src</title>
<path fill="none" stroke="black" stroke-width="2.6" d="M36,-24C36,-24 192,-24 192,-24 198,-24 204,-30 204,-36 204,-36 204,-158 204,-158 204,-164 198,-170 192,-170 192,-170 36,-170 36,-170 30,-170 24,-164 24,-158 24,-158 24,-36 24,-36 24,-30 30,-24 36,-24"/>
<text text-anchor="middle" x="114" y="-155.6" font-family="Arial Black" font-size="13.00">src</text>
</g>
<!-- /lib/src/version.dart -->
<g id="node1" class="node">
<title>/lib/src/version.dart</title>
<path fill="Lavender" stroke="black" stroke-width="1.3" d="M85.5,-68C85.5,-68 44.5,-68 44.5,-68 38.5,-68 32.5,-62 32.5,-56 32.5,-56 32.5,-44 32.5,-44 32.5,-38 38.5,-32 44.5,-32 44.5,-32 85.5,-32 85.5,-32 91.5,-32 97.5,-38 97.5,-44 97.5,-44 97.5,-56 97.5,-56 97.5,-62 91.5,-68 85.5,-68"/>
<text text-anchor="middle" x="65" y="-46.5" font-family="Arial" font-size="15.00">version</text>
</g>
<!-- /lib/src/logging_integration.dart -->
<g id="node2" class="node">
<title>/lib/src/logging_integration.dart</title>
<path fill="Lavender" stroke="black" stroke-width="1.3" d="M173,-140C173,-140 55,-140 55,-140 49,-140 43,-134 43,-128 43,-128 43,-116 43,-116 43,-110 49,-104 55,-104 55,-104 173,-104 173,-104 179,-104 185,-110 185,-116 185,-116 185,-128 185,-128 185,-134 179,-140 173,-140"/>
<text text-anchor="middle" x="114" y="-118.5" font-family="Arial" font-size="15.00">logging_integration</text>
</g>
<!-- /lib/src/logging_integration.dart&#45;&gt;/lib/src/version.dart -->
<g id="edge2" class="edge">
<title>/lib/src/logging_integration.dart&#45;&gt;/lib/src/version.dart</title>
<path fill="none" stroke="black" stroke-width="1.3" d="M101.89,-103.7C96.13,-95.47 89.14,-85.48 82.79,-76.42"/>
<polygon fill="black" stroke="black" stroke-width="1.3" points="85.58,-74.29 76.97,-68.1 79.84,-78.3 85.58,-74.29"/>
</g>
<!-- /lib/src/extension.dart -->
<g id="node3" class="node">
<title>/lib/src/extension.dart</title>
<path fill="Lavender" stroke="black" stroke-width="1.3" d="M184,-68C184,-68 128,-68 128,-68 122,-68 116,-62 116,-56 116,-56 116,-44 116,-44 116,-38 122,-32 128,-32 128,-32 184,-32 184,-32 190,-32 196,-38 196,-44 196,-44 196,-56 196,-56 196,-62 190,-68 184,-68"/>
<text text-anchor="middle" x="156" y="-46.5" font-family="Arial" font-size="15.00">extension</text>
</g>
<!-- /lib/src/logging_integration.dart&#45;&gt;/lib/src/extension.dart -->
<g id="edge1" class="edge">
<title>/lib/src/logging_integration.dart&#45;&gt;/lib/src/extension.dart</title>
<path fill="none" stroke="black" stroke-width="1.3" d="M124.38,-103.7C129.26,-95.56 135.19,-85.69 140.58,-76.7"/>
<polygon fill="black" stroke="black" stroke-width="1.3" points="143.59,-78.48 145.74,-68.1 137.59,-74.88 143.59,-78.48"/>
</g>
<!-- /lib/sentry_logging.dart -->
<g id="node4" class="node">
<title>/lib/sentry_logging.dart</title>
<path fill="Lavender" stroke="black" stroke-width="1.3" d="M158.5,-214C158.5,-214 69.5,-214 69.5,-214 63.5,-214 57.5,-208 57.5,-202 57.5,-202 57.5,-190 57.5,-190 57.5,-184 63.5,-178 69.5,-178 69.5,-178 158.5,-178 158.5,-178 164.5,-178 170.5,-184 170.5,-190 170.5,-190 170.5,-202 170.5,-202 170.5,-208 164.5,-214 158.5,-214"/>
<text text-anchor="middle" x="114" y="-192.5" font-family="Arial" font-size="15.00">sentry_logging</text>
</g>
<!-- /lib/sentry_logging.dart&#45;&gt;/lib/src/logging_integration.dart -->
<g id="edge3" class="edge">
<title>/lib/sentry_logging.dart&#45;&gt;/lib/src/logging_integration.dart</title>
<path fill="none" stroke="black" stroke-width="1.3" stroke-dasharray="5,2" d="M114,-177.94C114,-169.81 114,-159.88 114,-150.7"/>
<polygon fill="black" stroke="black" stroke-width="1.3" points="117.5,-150.44 114,-140.44 110.5,-150.44 117.5,-150.44"/>
</g>
</g>
</svg>
