<?xml version="1.0" encoding="UTF-8" standalone="no"?>
<!DOCTYPE svg PUBLIC "-//W3C//DTD SVG 1.1//EN"
 "http://www.w3.org/Graphics/SVG/1.1/DTD/svg11.dtd">
<!-- Generated by graphviz version 9.0.0 (20230911.1827)
 -->
<!-- Pages: 1 -->
<svg width="604pt" height="293pt"
 viewBox="0.00 0.00 604.00 293.00" xmlns="http://www.w3.org/2000/svg" xmlns:xlink="http://www.w3.org/1999/xlink">
<g id="graph0" class="graph" transform="scale(1 1) rotate(0) translate(4 289)">
<polygon fill="white" stroke="none" points="-4,4 -4,-289 600,-289 600,4 -4,4"/>
<g id="clust1" class="cluster">
<title>cluster~</title>
<path fill="none" stroke="black" stroke-width="2.6" d="M20,-8C20,-8 576,-8 576,-8 582,-8 588,-14 588,-20 588,-20 588,-265 588,-265 588,-271 582,-277 576,-277 576,-277 20,-277 20,-277 14,-277 8,-271 8,-265 8,-265 8,-20 8,-20 8,-14 14,-8 20,-8"/>
<text text-anchor="middle" x="298" y="-260.65" font-family="Arial Black" font-size="13.00">file</text>
</g>
<g id="clust2" class="cluster">
<title>cluster~/lib</title>
<path fill="none" stroke="black" stroke-width="2.6" d="M28,-16C28,-16 568,-16 568,-16 574,-16 580,-22 580,-28 580,-28 580,-234 580,-234 580,-240 574,-246 568,-246 568,-246 28,-246 28,-246 22,-246 16,-240 16,-234 16,-234 16,-28 16,-28 16,-22 22,-16 28,-16"/>
<text text-anchor="middle" x="298" y="-229.65" font-family="Arial Black" font-size="13.00">lib</text>
</g>
<g id="clust3" class="cluster">
<title>cluster~/lib/src</title>
<path fill="none" stroke="black" stroke-width="2.6" d="M36,-24C36,-24 528,-24 528,-24 534,-24 540,-30 540,-36 540,-36 540,-159 540,-159 540,-165 534,-171 528,-171 528,-171 36,-171 36,-171 30,-171 24,-165 24,-159 24,-159 24,-36 24,-36 24,-30 30,-24 36,-24"/>
<text text-anchor="middle" x="282" y="-154.65" font-family="Arial Black" font-size="13.00">src</text>
</g>
<!-- /lib/sentry_file.dart -->
<g id="node1" class="node">
<title>/lib/sentry_file.dart</title>
<path fill="Lavender" stroke="black" stroke-width="1.3" d="M484.12,-215C484.12,-215 423.88,-215 423.88,-215 417.88,-215 411.88,-209 411.88,-203 411.88,-203 411.88,-191 411.88,-191 411.88,-185 417.88,-179 423.88,-179 423.88,-179 484.12,-179 484.12,-179 490.12,-179 496.12,-185 496.12,-191 496.12,-191 496.12,-203 496.12,-203 496.12,-209 490.12,-215 484.12,-215"/>
<text text-anchor="middle" x="454" y="-191.75" font-family="Arial" font-size="15.00">sentry_file</text>
</g>
<!-- /lib/src/sentry_file_extension.dart -->
<g id="node2" class="node">
<title>/lib/src/sentry_file_extension.dart</title>
<path fill="Lavender" stroke="black" stroke-width="1.3" d="M520.12,-140C520.12,-140 387.88,-140 387.88,-140 381.88,-140 375.88,-134 375.88,-128 375.88,-128 375.88,-116 375.88,-116 375.88,-110 381.88,-104 387.88,-104 387.88,-104 520.12,-104 520.12,-104 526.12,-104 532.12,-110 532.12,-116 532.12,-116 532.12,-128 532.12,-128 532.12,-134 526.12,-140 520.12,-140"/>
<text text-anchor="middle" x="454" y="-116.75" font-family="Arial" font-size="15.00">sentry_file_extension</text>
</g>
<!-- /lib/sentry_file.dart&#45;&gt;/lib/src/sentry_file_extension.dart -->
<g id="edge2" class="edge">
<title>/lib/sentry_file.dart&#45;&gt;/lib/src/sentry_file_extension.dart</title>
<path fill="none" stroke="black" stroke-width="1.3" stroke-dasharray="5,2" d="M459.84,-178.7C460.67,-170.76 460.93,-161.12 460.63,-152.11"/>
<polygon fill="black" stroke="black" stroke-width="1.3" points="464.14,-152.14 459.98,-142.39 457.15,-152.6 464.14,-152.14"/>
</g>
<!-- /lib/src/sentry_io_overrides_integration.dart -->
<g id="node3" class="node">
<title>/lib/src/sentry_io_overrides_integration.dart</title>
<path fill="Lavender" stroke="black" stroke-width="1.3" d="M346.25,-140C346.25,-140 145.75,-140 145.75,-140 139.75,-140 133.75,-134 133.75,-128 133.75,-128 133.75,-116 133.75,-116 133.75,-110 139.75,-104 145.75,-104 145.75,-104 346.25,-104 346.25,-104 352.25,-104 358.25,-110 358.25,-116 358.25,-116 358.25,-128 358.25,-128 358.25,-134 352.25,-140 346.25,-140"/>
<text text-anchor="middle" x="246" y="-116.75" font-family="Arial" font-size="15.00">sentry_io_overrides_integration</text>
</g>
<!-- /lib/sentry_file.dart&#45;&gt;/lib/src/sentry_io_overrides_integration.dart -->
<g id="edge3" class="edge">
<title>/lib/sentry_file.dart&#45;&gt;/lib/src/sentry_io_overrides_integration.dart</title>
<path fill="none" stroke="black" stroke-width="1.3" stroke-dasharray="5,2" d="M411.7,-184.74C397.41,-180.7 381.43,-175.92 367,-171 344.16,-163.21 319.31,-153.56 298.11,-144.97"/>
<polygon fill="black" stroke="black" stroke-width="1.3" points="299.47,-141.74 288.89,-141.2 296.82,-148.22 299.47,-141.74"/>
</g>
<!-- /lib/src/sentry_file.dart -->
<g id="node4" class="node">
<title>/lib/src/sentry_file.dart</title>
<path fill="Lavender" stroke="black" stroke-width="1.3" d="M104.12,-140C104.12,-140 43.88,-140 43.88,-140 37.88,-140 31.88,-134 31.88,-128 31.88,-128 31.88,-116 31.88,-116 31.88,-110 37.88,-104 43.88,-104 43.88,-104 104.12,-104 104.12,-104 110.12,-104 116.12,-110 116.12,-116 116.12,-116 116.12,-128 116.12,-128 116.12,-134 110.12,-140 104.12,-140"/>
<text text-anchor="middle" x="74" y="-116.75" font-family="Arial" font-size="15.00">sentry_file</text>
</g>
<!-- /lib/sentry_file.dart&#45;&gt;/lib/src/sentry_file.dart -->
<g id="edge1" class="edge">
<title>/lib/sentry_file.dart&#45;&gt;/lib/src/sentry_file.dart</title>
<path fill="none" stroke="black" stroke-width="1.3" stroke-dasharray="5,2" d="M411.43,-196.25C334.39,-196.14 175.18,-193.14 125,-171 113.77,-166.05 103.47,-157.54 95.11,-149.05"/>
<polygon fill="black" stroke="black" stroke-width="1.3" points="97.81,-146.81 88.47,-141.8 92.65,-151.54 97.81,-146.81"/>
</g>
<!-- /lib/src/sentry_io_overrides.dart -->
<g id="node6" class="node">
<title>/lib/src/sentry_io_overrides.dart</title>
<path fill="Lavender" stroke="black" stroke-width="1.3" d="M520.25,-68C520.25,-68 397.75,-68 397.75,-68 391.75,-68 385.75,-62 385.75,-56 385.75,-56 385.75,-44 385.75,-44 385.75,-38 391.75,-32 397.75,-32 397.75,-32 520.25,-32 520.25,-32 526.25,-32 532.25,-38 532.25,-44 532.25,-44 532.25,-56 532.25,-56 532.25,-62 526.25,-68 520.25,-68"/>
<text text-anchor="middle" x="459" y="-44.75" font-family="Arial" font-size="15.00">sentry_io_overrides</text>
</g>
<!-- /lib/sentry_file.dart&#45;&gt;/lib/src/sentry_io_overrides.dart -->
<g id="edge4" class="edge">
<title>/lib/sentry_file.dart&#45;&gt;/lib/src/sentry_io_overrides.dart</title>
<path fill="none" stroke="black" stroke-width="1.3" stroke-dasharray="5,2" d="M496.47,-194.35C513.07,-191.37 530.6,-184.81 541,-171 558.91,-147.21 555.24,-130.15 541,-104 534.48,-92.02 523.96,-82.34 512.6,-74.69"/>
<polygon fill="black" stroke="black" stroke-width="1.3" points="514.51,-71.76 504.16,-69.52 510.86,-77.73 514.51,-71.76"/>
</g>
<!-- /lib/src/sentry_file_extension.dart&#45;&gt;/lib/sentry_file.dart -->
<g id="edge5" class="edge">
<title>/lib/src/sentry_file_extension.dart&#45;&gt;/lib/sentry_file.dart</title>
<path fill="none" stroke="black" stroke-width="1.3" d="M448.15,-140.43C447.32,-148.39 447.07,-158.03 447.38,-167.04"/>
<polygon fill="black" stroke="black" stroke-width="1.3" points="443.87,-166.99 448.03,-176.74 450.85,-166.53 443.87,-166.99"/>
</g>
<!-- /lib/src/sentry_io_overrides_integration.dart&#45;&gt;/lib/src/sentry_io_overrides.dart -->
<g id="edge6" class="edge">
<title>/lib/src/sentry_io_overrides_integration.dart&#45;&gt;/lib/src/sentry_io_overrides.dart</title>
<path fill="none" stroke="black" stroke-width="1.3" d="M299.2,-103.52C328.28,-93.96 364.51,-82.05 395.11,-72"/>
<polygon fill="black" stroke="black" stroke-width="1.3" points="395.83,-75.44 404.24,-69 393.65,-68.79 395.83,-75.44"/>
</g>
<!-- /lib/src/version.dart -->
<g id="node5" class="node">
<title>/lib/src/version.dart</title>
<path fill="Lavender" stroke="black" stroke-width="1.3" d="M94,-68C94,-68 54,-68 54,-68 48,-68 42,-62 42,-56 42,-56 42,-44 42,-44 42,-38 48,-32 54,-32 54,-32 94,-32 94,-32 100,-32 106,-38 106,-44 106,-44 106,-56 106,-56 106,-62 100,-68 94,-68"/>
<text text-anchor="middle" x="74" y="-44.75" font-family="Arial" font-size="15.00">version</text>
</g>
<!-- /lib/src/sentry_file.dart&#45;&gt;/lib/src/version.dart -->
<g id="edge7" class="edge">
<title>/lib/src/sentry_file.dart&#45;&gt;/lib/src/version.dart</title>
<path fill="none" stroke="black" stroke-width="1.3" d="M74,-103.7C74,-96.49 74,-87.93 74,-79.82"/>
<polygon fill="black" stroke="black" stroke-width="1.3" points="77.5,-80.07 74,-70.07 70.5,-80.07 77.5,-80.07"/>
</g>
<!-- /lib/src/sentry_io_overrides.dart&#45;&gt;/lib/sentry_file.dart -->
<g id="edge8" class="edge">
<title>/lib/src/sentry_io_overrides.dart&#45;&gt;/lib/sentry_file.dart</title>
<path fill="none" stroke="black" stroke-width="1.3" d="M510.6,-68.4C526.75,-76.56 542.76,-88.09 552,-104 566.96,-129.75 570.27,-147.49 552,-171 546.15,-178.53 527.63,-184.17 508.25,-188.17"/>
<polygon fill="black" stroke="black" stroke-width="1.3" points="507.6,-184.73 498.43,-190.02 508.91,-191.6 507.6,-184.73"/>
</g>
</g>
</svg>
