<?xml version="1.0" encoding="UTF-8" standalone="no"?>
<!DOCTYPE svg PUBLIC "-//W3C//DTD SVG 1.1//EN"
 "http://www.w3.org/Graphics/SVG/1.1/DTD/svg11.dtd">
<!-- Generated by graphviz version 9.0.0 (20230911.1827)
 -->
<!-- Pages: 1 -->
<svg width="706pt" height="520pt"
 viewBox="0.00 0.00 706.00 520.00" xmlns="http://www.w3.org/2000/svg" xmlns:xlink="http://www.w3.org/1999/xlink">
<g id="graph0" class="graph" transform="scale(1 1) rotate(0) translate(4 516)">
<polygon fill="white" stroke="none" points="-4,4 -4,-516 702,-516 702,4 -4,4"/>
<g id="clust1" class="cluster">
<title>cluster~</title>
<path fill="none" stroke="black" stroke-width="2.6" d="M20,-8C20,-8 678,-8 678,-8 684,-8 690,-14 690,-20 690,-20 690,-492 690,-492 690,-498 684,-504 678,-504 678,-504 20,-504 20,-504 14,-504 8,-498 8,-492 8,-492 8,-20 8,-20 8,-14 14,-8 20,-8"/>
<text text-anchor="middle" x="349" y="-487.65" font-family="Arial Black" font-size="13.00">sqflite</text>
</g>
<g id="clust2" class="cluster">
<title>cluster~/lib</title>
<path fill="none" stroke="black" stroke-width="2.6" d="M28,-16C28,-16 670,-16 670,-16 676,-16 682,-22 682,-28 682,-28 682,-461 682,-461 682,-467 676,-473 670,-473 670,-473 28,-473 28,-473 22,-473 16,-467 16,-461 16,-461 16,-28 16,-28 16,-22 22,-16 28,-16"/>
<text text-anchor="middle" x="349" y="-456.65" font-family="Arial Black" font-size="13.00">lib</text>
</g>
<g id="clust3" class="cluster">
<title>cluster~/lib/src</title>
<path fill="none" stroke="black" stroke-width="2.6" d="M36,-24C36,-24 590,-24 590,-24 596,-24 602,-30 602,-36 602,-36 602,-386 602,-386 602,-392 596,-398 590,-398 590,-398 36,-398 36,-398 30,-398 24,-392 24,-386 24,-386 24,-36 24,-36 24,-30 30,-24 36,-24"/>
<text text-anchor="middle" x="313" y="-381.65" font-family="Arial Black" font-size="13.00">src</text>
</g>
<g id="clust4" class="cluster">
<title>cluster~/lib/src/utils</title>
<path fill="none" stroke="black" stroke-width="2.6" d="M274,-32C274,-32 504,-32 504,-32 510,-32 516,-38 516,-44 516,-44 516,-95 516,-95 516,-101 510,-107 504,-107 504,-107 274,-107 274,-107 268,-107 262,-101 262,-95 262,-95 262,-44 262,-44 262,-38 268,-32 274,-32"/>
<text text-anchor="middle" x="389" y="-90.65" font-family="Arial Black" font-size="13.00">utils</text>
</g>
<!-- /lib/sentry_sqflite.dart -->
<g id="node1" class="node">
<title>/lib/sentry_sqflite.dart</title>
<path fill="Lavender" stroke="black" stroke-width="1.3" d="M657.25,-442C657.25,-442 576.75,-442 576.75,-442 570.75,-442 564.75,-436 564.75,-430 564.75,-430 564.75,-418 564.75,-418 564.75,-412 570.75,-406 576.75,-406 576.75,-406 657.25,-406 657.25,-406 663.25,-406 669.25,-412 669.25,-418 669.25,-418 669.25,-430 669.25,-430 669.25,-436 663.25,-442 657.25,-442"/>
<text text-anchor="middle" x="617" y="-418.75" font-family="Arial" font-size="15.00">sentry_sqflite</text>
</g>
<!-- /lib/src/sentry_sqflite.dart -->
<g id="node4" class="node">
<title>/lib/src/sentry_sqflite.dart</title>
<path fill="Lavender" stroke="black" stroke-width="1.3" d="M336.25,-367C336.25,-367 255.75,-367 255.75,-367 249.75,-367 243.75,-361 243.75,-355 243.75,-355 243.75,-343 243.75,-343 243.75,-337 249.75,-331 255.75,-331 255.75,-331 336.25,-331 336.25,-331 342.25,-331 348.25,-337 348.25,-343 348.25,-343 348.25,-355 348.25,-355 348.25,-361 342.25,-367 336.25,-367"/>
<text text-anchor="middle" x="296" y="-343.75" font-family="Arial" font-size="15.00">sentry_sqflite</text>
</g>
<!-- /lib/sentry_sqflite.dart&#45;&gt;/lib/src/sentry_sqflite.dart -->
<g id="edge2" class="edge">
<title>/lib/sentry_sqflite.dart&#45;&gt;/lib/src/sentry_sqflite.dart</title>
<path fill="none" stroke="black" stroke-width="1.3" stroke-dasharray="5,2" d="M564.49,-421.43C499.65,-418.9 393.46,-412.62 357,-398 344.07,-392.82 331.64,-383.99 321.41,-375.32"/>
<polygon fill="black" stroke="black" stroke-width="1.3" points="323.93,-372.88 314.15,-368.81 319.26,-378.09 323.93,-372.88"/>
</g>
<!-- /lib/src/sentry_sqflite_database_factory.dart -->
<g id="node5" class="node">
<title>/lib/src/sentry_sqflite_database_factory.dart</title>
<path fill="Lavender" stroke="black" stroke-width="1.3" d="M582.12,-367C582.12,-367 377.88,-367 377.88,-367 371.88,-367 365.88,-361 365.88,-355 365.88,-355 365.88,-343 365.88,-343 365.88,-337 371.88,-331 377.88,-331 377.88,-331 582.12,-331 582.12,-331 588.12,-331 594.12,-337 594.12,-343 594.12,-343 594.12,-355 594.12,-355 594.12,-361 588.12,-367 582.12,-367"/>
<text text-anchor="middle" x="480" y="-343.75" font-family="Arial" font-size="15.00">sentry_sqflite_database_factory</text>
</g>
<!-- /lib/sentry_sqflite.dart&#45;&gt;/lib/src/sentry_sqflite_database_factory.dart -->
<g id="edge3" class="edge">
<title>/lib/sentry_sqflite.dart&#45;&gt;/lib/src/sentry_sqflite_database_factory.dart</title>
<path fill="none" stroke="black" stroke-width="1.3" stroke-dasharray="5,2" d="M584.19,-405.51C565.8,-395.72 542.66,-383.39 522.85,-372.83"/>
<polygon fill="black" stroke="black" stroke-width="1.3" points="524.75,-369.88 514.28,-368.27 521.46,-376.06 524.75,-369.88"/>
</g>
<!-- /lib/src/sentry_database.dart -->
<g id="node7" class="node">
<title>/lib/src/sentry_database.dart</title>
<path fill="Lavender" stroke="black" stroke-width="1.3" d="M405.5,-295C405.5,-295 302.5,-295 302.5,-295 296.5,-295 290.5,-289 290.5,-283 290.5,-283 290.5,-271 290.5,-271 290.5,-265 296.5,-259 302.5,-259 302.5,-259 405.5,-259 405.5,-259 411.5,-259 417.5,-265 417.5,-271 417.5,-271 417.5,-283 417.5,-283 417.5,-289 411.5,-295 405.5,-295"/>
<text text-anchor="middle" x="354" y="-271.75" font-family="Arial" font-size="15.00">sentry_database</text>
</g>
<!-- /lib/sentry_sqflite.dart&#45;&gt;/lib/src/sentry_database.dart -->
<g id="edge1" class="edge">
<title>/lib/sentry_sqflite.dart&#45;&gt;/lib/src/sentry_database.dart</title>
<path fill="none" stroke="black" stroke-width="1.3" stroke-dasharray="5,2" d="M619.75,-405.55C621.92,-384.91 621.98,-350.86 603,-331 548.99,-274.48 506.21,-309.31 429.29,-296.3"/>
<polygon fill="black" stroke="black" stroke-width="1.3" points="430.1,-292.9 419.61,-294.4 428.75,-299.76 430.1,-292.9"/>
</g>
<!-- /lib/src/sentry_sqflite_transaction.dart -->
<g id="node8" class="node">
<title>/lib/src/sentry_sqflite_transaction.dart</title>
<path fill="Lavender" stroke="black" stroke-width="1.3" d="M567.12,-223C567.12,-223 404.88,-223 404.88,-223 398.88,-223 392.88,-217 392.88,-211 392.88,-211 392.88,-199 392.88,-199 392.88,-193 398.88,-187 404.88,-187 404.88,-187 567.12,-187 567.12,-187 573.12,-187 579.12,-193 579.12,-199 579.12,-199 579.12,-211 579.12,-211 579.12,-217 573.12,-223 567.12,-223"/>
<text text-anchor="middle" x="486" y="-199.75" font-family="Arial" font-size="15.00">sentry_sqflite_transaction</text>
</g>
<!-- /lib/sentry_sqflite.dart&#45;&gt;/lib/src/sentry_sqflite_transaction.dart -->
<g id="edge5" class="edge">
<title>/lib/sentry_sqflite.dart&#45;&gt;/lib/src/sentry_sqflite_transaction.dart</title>
<path fill="none" stroke="black" stroke-width="1.3" stroke-dasharray="5,2" d="M620.67,-405.56C623.85,-386.42 626.46,-355.19 616,-331 597.28,-287.69 555.56,-252.06 524.39,-230.07"/>
<polygon fill="black" stroke="black" stroke-width="1.3" points="526.54,-227.3 516.31,-224.53 522.58,-233.07 526.54,-227.3"/>
</g>
<!-- /lib/src/sentry_batch.dart -->
<g id="node9" class="node">
<title>/lib/src/sentry_batch.dart</title>
<path fill="Lavender" stroke="black" stroke-width="1.3" d="M463.12,-151C463.12,-151 384.88,-151 384.88,-151 378.88,-151 372.88,-145 372.88,-139 372.88,-139 372.88,-127 372.88,-127 372.88,-121 378.88,-115 384.88,-115 384.88,-115 463.12,-115 463.12,-115 469.12,-115 475.12,-121 475.12,-127 475.12,-127 475.12,-139 475.12,-139 475.12,-145 469.12,-151 463.12,-151"/>
<text text-anchor="middle" x="424" y="-127.75" font-family="Arial" font-size="15.00">sentry_batch</text>
</g>
<!-- /lib/sentry_sqflite.dart&#45;&gt;/lib/src/sentry_batch.dart -->
<g id="edge4" class="edge">
<title>/lib/sentry_sqflite.dart&#45;&gt;/lib/src/sentry_batch.dart</title>
<path fill="none" stroke="black" stroke-width="1.3" stroke-dasharray="5,2" d="M622.51,-405.64C623.13,-403.1 623.66,-400.5 624,-398 628.05,-368.5 627.64,-360.55 624,-331 615.94,-265.52 633.04,-235.2 588,-187 586.12,-184.99 532.3,-167.8 486.82,-153.54"/>
<polygon fill="black" stroke="black" stroke-width="1.3" points="487.94,-150.22 477.35,-150.57 485.85,-156.9 487.94,-150.22"/>
</g>
<!-- /lib/src/sentry_database_executor.dart -->
<g id="node2" class="node">
<title>/lib/src/sentry_database_executor.dart</title>
<path fill="Lavender" stroke="black" stroke-width="1.3" d="M213.5,-367C213.5,-367 44.5,-367 44.5,-367 38.5,-367 32.5,-361 32.5,-355 32.5,-355 32.5,-343 32.5,-343 32.5,-337 38.5,-331 44.5,-331 44.5,-331 213.5,-331 213.5,-331 219.5,-331 225.5,-337 225.5,-343 225.5,-343 225.5,-355 225.5,-355 225.5,-361 219.5,-367 213.5,-367"/>
<text text-anchor="middle" x="129" y="-343.75" font-family="Arial" font-size="15.00">sentry_database_executor</text>
</g>
<!-- /lib/src/utils/sentry_database_span_attributes.dart -->
<g id="node3" class="node">
<title>/lib/src/utils/sentry_database_span_attributes.dart</title>
<path fill="Lavender" stroke="black" stroke-width="1.3" d="M496,-76C496,-76 282,-76 282,-76 276,-76 270,-70 270,-64 270,-64 270,-52 270,-52 270,-46 276,-40 282,-40 282,-40 496,-40 496,-40 502,-40 508,-46 508,-52 508,-52 508,-64 508,-64 508,-70 502,-76 496,-76"/>
<text text-anchor="middle" x="389" y="-52.75" font-family="Arial" font-size="15.00">sentry_database_span_attributes</text>
</g>
<!-- /lib/src/sentry_database_executor.dart&#45;&gt;/lib/src/utils/sentry_database_span_attributes.dart -->
<g id="edge8" class="edge">
<title>/lib/src/sentry_database_executor.dart&#45;&gt;/lib/src/utils/sentry_database_span_attributes.dart</title>
<path fill="none" stroke="black" stroke-width="1.3" d="M134.39,-330.59C140.48,-312.14 151.34,-282.48 165,-259 210.87,-180.17 298.66,-115.68 349.65,-82.74"/>
<polygon fill="black" stroke="black" stroke-width="1.3" points="351.42,-85.77 357.98,-77.45 347.66,-79.86 351.42,-85.77"/>
</g>
<!-- /lib/src/sentry_database_executor.dart&#45;&gt;/lib/src/sentry_database.dart -->
<g id="edge7" class="edge">
<title>/lib/src/sentry_database_executor.dart&#45;&gt;/lib/src/sentry_database.dart</title>
<path fill="none" stroke="black" stroke-width="1.3" d="M179.26,-330.52C209.27,-320.88 247.85,-308.84 281.14,-298.73"/>
<polygon fill="black" stroke="black" stroke-width="1.3" points="281.77,-302.2 290.32,-295.95 279.74,-295.5 281.77,-302.2"/>
</g>
<!-- /lib/src/sentry_database_executor.dart&#45;&gt;/lib/src/sentry_batch.dart -->
<g id="edge6" class="edge">
<title>/lib/src/sentry_database_executor.dart&#45;&gt;/lib/src/sentry_batch.dart</title>
<path fill="none" stroke="black" stroke-width="1.3" d="M141.41,-330.63C168.36,-293.33 232.19,-207.32 262,-187 291.62,-166.81 329.47,-153.86 361.14,-145.82"/>
<polygon fill="black" stroke="black" stroke-width="1.3" points="361.69,-149.29 370.59,-143.54 360.05,-142.49 361.69,-149.29"/>
</g>
<!-- /lib/src/utils/sentry_database_span_attributes.dart&#45;&gt;/lib/sentry_sqflite.dart -->
<g id="edge9" class="edge">
<title>/lib/src/utils/sentry_database_span_attributes.dart&#45;&gt;/lib/sentry_sqflite.dart</title>
<path fill="none" stroke="black" stroke-width="1.3" d="M508.21,-72.97C585.93,-89.5 673,-125.53 673,-204 673,-278 673,-278 673,-278 673,-321.31 650.99,-367.31 634.57,-395.6"/>
<polygon fill="black" stroke="black" stroke-width="1.3" points="631.76,-393.47 629.62,-403.85 637.76,-397.07 631.76,-393.47"/>
</g>
<!-- /lib/src/sentry_sqflite.dart&#45;&gt;/lib/src/sentry_database.dart -->
<g id="edge10" class="edge">
<title>/lib/src/sentry_sqflite.dart&#45;&gt;/lib/src/sentry_database.dart</title>
<path fill="none" stroke="black" stroke-width="1.3" d="M310.34,-330.7C316.94,-322.73 324.92,-313.1 332.24,-304.26"/>
<polygon fill="black" stroke="black" stroke-width="1.3" points="334.89,-306.55 338.57,-296.62 329.5,-302.09 334.89,-306.55"/>
</g>
<!-- /lib/src/sentry_sqflite_database_factory.dart&#45;&gt;/lib/src/sentry_database.dart -->
<g id="edge11" class="edge">
<title>/lib/src/sentry_sqflite_database_factory.dart&#45;&gt;/lib/src/sentry_database.dart</title>
<path fill="none" stroke="black" stroke-width="1.3" d="M448.53,-330.52C432.47,-321.6 412.74,-310.63 395.46,-301.03"/>
<polygon fill="black" stroke="black" stroke-width="1.3" points="397.23,-298.01 386.79,-296.22 393.83,-304.13 397.23,-298.01"/>
</g>
<!-- /lib/src/version.dart -->
<g id="node6" class="node">
<title>/lib/src/version.dart</title>
<path fill="Lavender" stroke="black" stroke-width="1.3" d="M323,-223C323,-223 283,-223 283,-223 277,-223 271,-217 271,-211 271,-211 271,-199 271,-199 271,-193 277,-187 283,-187 283,-187 323,-187 323,-187 329,-187 335,-193 335,-199 335,-199 335,-211 335,-211 335,-217 329,-223 323,-223"/>
<text text-anchor="middle" x="303" y="-199.75" font-family="Arial" font-size="15.00">version</text>
</g>
<!-- /lib/src/sentry_database.dart&#45;&gt;/lib/src/sentry_database_executor.dart -->
<g id="edge12" class="edge">
<title>/lib/src/sentry_database.dart&#45;&gt;/lib/src/sentry_database_executor.dart</title>
<path fill="none" stroke="black" stroke-width="1.3" d="M304.05,-295.38C274.1,-305.01 235.54,-317.04 202.21,-327.16"/>
<polygon fill="black" stroke="black" stroke-width="1.3" points="201.57,-323.7 193.01,-329.95 203.6,-330.4 201.57,-323.7"/>
</g>
<!-- /lib/src/sentry_database.dart&#45;&gt;/lib/src/utils/sentry_database_span_attributes.dart -->
<g id="edge15" class="edge">
<title>/lib/src/sentry_database.dart&#45;&gt;/lib/src/utils/sentry_database_span_attributes.dart</title>
<path fill="none" stroke="black" stroke-width="1.3" d="M353.08,-258.78C351.93,-228.99 351.44,-166.13 364,-115 366.36,-105.4 370.29,-95.4 374.35,-86.56"/>
<polygon fill="black" stroke="black" stroke-width="1.3" points="377.36,-88.37 378.59,-77.85 371.06,-85.31 377.36,-88.37"/>
</g>
<!-- /lib/src/sentry_database.dart&#45;&gt;/lib/src/version.dart -->
<g id="edge14" class="edge">
<title>/lib/src/sentry_database.dart&#45;&gt;/lib/src/version.dart</title>
<path fill="none" stroke="black" stroke-width="1.3" d="M341.39,-258.7C335.65,-250.81 328.72,-241.3 322.34,-232.55"/>
<polygon fill="black" stroke="black" stroke-width="1.3" points="325.34,-230.72 316.62,-224.69 319.68,-234.84 325.34,-230.72"/>
</g>
<!-- /lib/src/sentry_database.dart&#45;&gt;/lib/src/sentry_sqflite_transaction.dart -->
<g id="edge13" class="edge">
<title>/lib/src/sentry_database.dart&#45;&gt;/lib/src/sentry_sqflite_transaction.dart</title>
<path fill="none" stroke="black" stroke-width="1.3" d="M386.97,-258.52C403.95,-249.51 424.86,-238.42 443.08,-228.76"/>
<polygon fill="black" stroke="black" stroke-width="1.3" points="444.52,-231.96 451.71,-224.18 441.24,-225.78 444.52,-231.96"/>
</g>
<!-- /lib/src/sentry_sqflite_transaction.dart&#45;&gt;/lib/src/sentry_batch.dart -->
<g id="edge16" class="edge">
<title>/lib/src/sentry_sqflite_transaction.dart&#45;&gt;/lib/src/sentry_batch.dart</title>
<path fill="none" stroke="black" stroke-width="1.3" d="M470.67,-186.7C463.54,-178.64 454.91,-168.89 447.01,-159.98"/>
<polygon fill="black" stroke="black" stroke-width="1.3" points="449.7,-157.74 440.45,-152.58 444.46,-162.38 449.7,-157.74"/>
</g>
<!-- /lib/src/sentry_batch.dart&#45;&gt;/lib/src/utils/sentry_database_span_attributes.dart -->
<g id="edge18" class="edge">
<title>/lib/src/sentry_batch.dart&#45;&gt;/lib/src/utils/sentry_database_span_attributes.dart</title>
<path fill="none" stroke="black" stroke-width="1.3" d="M415.71,-114.7C411.77,-106.49 406.96,-96.46 402.52,-87.19"/>
<polygon fill="black" stroke="black" stroke-width="1.3" points="405.69,-85.71 398.21,-78.2 399.37,-88.73 405.69,-85.71"/>
</g>
<!-- /lib/src/sentry_batch.dart&#45;&gt;/lib/src/sentry_database.dart -->
<g id="edge17" class="edge">
<title>/lib/src/sentry_batch.dart&#45;&gt;/lib/src/sentry_database.dart</title>
<path fill="none" stroke="black" stroke-width="1.3" d="M408.78,-151.18C400.58,-161.12 390.78,-174.16 384,-187 373.92,-206.1 366.24,-229.25 361.17,-247.16"/>
<polygon fill="black" stroke="black" stroke-width="1.3" points="357.82,-246.14 358.6,-256.7 364.58,-247.96 357.82,-246.14"/>
</g>
</g>
</svg>
