<?xml version="1.0" encoding="UTF-8" standalone="no"?>
<!DOCTYPE svg PUBLIC "-//W3C//DTD SVG 1.1//EN"
 "http://www.w3.org/Graphics/SVG/1.1/DTD/svg11.dtd">
<!-- Generated by graphviz version 2.43.0 (0)
 -->
<!-- Pages: 1 -->
<svg width="608pt" height="290pt"
 viewBox="0.00 0.00 608.00 290.00" xmlns="http://www.w3.org/2000/svg" xmlns:xlink="http://www.w3.org/1999/xlink">
<g id="graph0" class="graph" transform="scale(1 1) rotate(0) translate(4 286)">
<polygon fill="white" stroke="transparent" points="-4,4 -4,-286 604,-286 604,4 -4,4"/>
<g id="clust1" class="cluster">
<title>cluster~</title>
<path fill="none" stroke="black" stroke-width="2.6" d="M20,-8C20,-8 580,-8 580,-8 586,-8 592,-14 592,-20 592,-20 592,-262 592,-262 592,-268 586,-274 580,-274 580,-274 20,-274 20,-274 14,-274 8,-268 8,-262 8,-262 8,-20 8,-20 8,-14 14,-8 20,-8"/>
<text text-anchor="middle" x="300" y="-259.6" font-family="Arial Black" font-size="13.00">file</text>
</g>
<g id="clust2" class="cluster">
<title>cluster~/lib</title>
<path fill="none" stroke="black" stroke-width="2.6" d="M28,-16C28,-16 572,-16 572,-16 578,-16 584,-22 584,-28 584,-28 584,-232 584,-232 584,-238 578,-244 572,-244 572,-244 28,-244 28,-244 22,-244 16,-238 16,-232 16,-232 16,-28 16,-28 16,-22 22,-16 28,-16"/>
<text text-anchor="middle" x="300" y="-229.6" font-family="Arial Black" font-size="13.00">lib</text>
</g>
<g id="clust3" class="cluster">
<title>cluster~/lib/src</title>
<path fill="none" stroke="black" stroke-width="2.6" d="M36,-24C36,-24 532,-24 532,-24 538,-24 544,-30 544,-36 544,-36 544,-158 544,-158 544,-164 538,-170 532,-170 532,-170 36,-170 36,-170 30,-170 24,-164 24,-158 24,-158 24,-36 24,-36 24,-30 30,-24 36,-24"/>
<text text-anchor="middle" x="284" y="-155.6" font-family="Arial Black" font-size="13.00">src</text>
</g>
<!-- /lib/sentry_file.dart -->
<g id="node1" class="node">
<title>/lib/sentry_file.dart</title>
<path fill="Lavender" stroke="black" stroke-width="1.3" d="M453.5,-214C453.5,-214 392.5,-214 392.5,-214 386.5,-214 380.5,-208 380.5,-202 380.5,-202 380.5,-190 380.5,-190 380.5,-184 386.5,-178 392.5,-178 392.5,-178 453.5,-178 453.5,-178 459.5,-178 465.5,-184 465.5,-190 465.5,-190 465.5,-202 465.5,-202 465.5,-208 459.5,-214 453.5,-214"/>
<text text-anchor="middle" x="423" y="-192.5" font-family="Arial" font-size="15.00">sentry_file</text>
</g>
<!-- /lib/src/sentry_file.dart -->
<g id="node3" class="node">
<title>/lib/src/sentry_file.dart</title>
<path fill="Lavender" stroke="black" stroke-width="1.3" d="M280.5,-140C280.5,-140 219.5,-140 219.5,-140 213.5,-140 207.5,-134 207.5,-128 207.5,-128 207.5,-116 207.5,-116 207.5,-110 213.5,-104 219.5,-104 219.5,-104 280.5,-104 280.5,-104 286.5,-104 292.5,-110 292.5,-116 292.5,-116 292.5,-128 292.5,-128 292.5,-134 286.5,-140 280.5,-140"/>
<text text-anchor="middle" x="250" y="-118.5" font-family="Arial" font-size="15.00">sentry_file</text>
</g>
<!-- /lib/sentry_file.dart&#45;&gt;/lib/src/sentry_file.dart -->
<g id="edge1" class="edge">
<title>/lib/sentry_file.dart&#45;&gt;/lib/src/sentry_file.dart</title>
<path fill="none" stroke="black" stroke-width="1.3" stroke-dasharray="5,2" d="M380.3,-191.74C356.27,-188.57 326.3,-182.32 302,-170 290.92,-164.38 280.41,-155.77 271.77,-147.44"/>
<polygon fill="black" stroke="black" stroke-width="1.3" points="274.22,-144.94 264.7,-140.29 269.24,-149.86 274.22,-144.94"/>
</g>
<!-- /lib/src/sentry_io_overrides.dart -->
<g id="node4" class="node">
<title>/lib/src/sentry_io_overrides.dart</title>
<path fill="Lavender" stroke="black" stroke-width="1.3" d="M523.5,-68C523.5,-68 400.5,-68 400.5,-68 394.5,-68 388.5,-62 388.5,-56 388.5,-56 388.5,-44 388.5,-44 388.5,-38 394.5,-32 400.5,-32 400.5,-32 523.5,-32 523.5,-32 529.5,-32 535.5,-38 535.5,-44 535.5,-44 535.5,-56 535.5,-56 535.5,-62 529.5,-68 523.5,-68"/>
<text text-anchor="middle" x="462" y="-46.5" font-family="Arial" font-size="15.00">sentry_io_overrides</text>
</g>
<!-- /lib/sentry_file.dart&#45;&gt;/lib/src/sentry_io_overrides.dart -->
<g id="edge4" class="edge">
<title>/lib/sentry_file.dart&#45;&gt;/lib/src/sentry_io_overrides.dart</title>
<path fill="none" stroke="black" stroke-width="1.3" stroke-dasharray="5,2" d="M465.69,-191.89C496.74,-188.64 535.02,-182.23 545,-170 563.54,-147.27 559.1,-129.72 545,-104 538.06,-91.33 526.66,-81.25 514.5,-73.43"/>
<polygon fill="black" stroke="black" stroke-width="1.3" points="515.95,-70.22 505.56,-68.13 512.38,-76.24 515.95,-70.22"/>
</g>
<!-- /lib/src/sentry_io_overrides_integration.dart -->
<g id="node5" class="node">
<title>/lib/src/sentry_io_overrides_integration.dart</title>
<path fill="Lavender" stroke="black" stroke-width="1.3" d="M523.5,-140C523.5,-140 322.5,-140 322.5,-140 316.5,-140 310.5,-134 310.5,-128 310.5,-128 310.5,-116 310.5,-116 310.5,-110 316.5,-104 322.5,-104 322.5,-104 523.5,-104 523.5,-104 529.5,-104 535.5,-110 535.5,-116 535.5,-116 535.5,-128 535.5,-128 535.5,-134 529.5,-140 523.5,-140"/>
<text text-anchor="middle" x="423" y="-118.5" font-family="Arial" font-size="15.00">sentry_io_overrides_integration</text>
</g>
<!-- /lib/sentry_file.dart&#45;&gt;/lib/src/sentry_io_overrides_integration.dart -->
<g id="edge3" class="edge">
<title>/lib/sentry_file.dart&#45;&gt;/lib/src/sentry_io_overrides_integration.dart</title>
<path fill="none" stroke="black" stroke-width="1.3" stroke-dasharray="5,2" d="M423,-177.94C423,-169.81 423,-159.88 423,-150.7"/>
<polygon fill="black" stroke="black" stroke-width="1.3" points="426.5,-150.44 423,-140.44 419.5,-150.44 426.5,-150.44"/>
</g>
<!-- /lib/src/sentry_file_extension.dart -->
<g id="node6" class="node">
<title>/lib/src/sentry_file_extension.dart</title>
<path fill="Lavender" stroke="black" stroke-width="1.3" d="M177.5,-140C177.5,-140 44.5,-140 44.5,-140 38.5,-140 32.5,-134 32.5,-128 32.5,-128 32.5,-116 32.5,-116 32.5,-110 38.5,-104 44.5,-104 44.5,-104 177.5,-104 177.5,-104 183.5,-104 189.5,-110 189.5,-116 189.5,-116 189.5,-128 189.5,-128 189.5,-134 183.5,-140 177.5,-140"/>
<text text-anchor="middle" x="111" y="-118.5" font-family="Arial" font-size="15.00">sentry_file_extension</text>
</g>
<!-- /lib/sentry_file.dart&#45;&gt;/lib/src/sentry_file_extension.dart -->
<g id="edge2" class="edge">
<title>/lib/sentry_file.dart&#45;&gt;/lib/src/sentry_file_extension.dart</title>
<path fill="none" stroke="black" stroke-width="1.3" stroke-dasharray="5,2" d="M380.39,-194.8C336.28,-193.38 266.11,-188.03 208,-170 189.3,-164.2 169.95,-154.35 153.4,-145.17"/>
<polygon fill="black" stroke="black" stroke-width="1.3" points="154.95,-142.02 144.51,-140.16 151.51,-148.12 154.95,-142.02"/>
</g>
<!-- /lib/src/version.dart -->
<g id="node2" class="node">
<title>/lib/src/version.dart</title>
<path fill="Lavender" stroke="black" stroke-width="1.3" d="M270.5,-68C270.5,-68 229.5,-68 229.5,-68 223.5,-68 217.5,-62 217.5,-56 217.5,-56 217.5,-44 217.5,-44 217.5,-38 223.5,-32 229.5,-32 229.5,-32 270.5,-32 270.5,-32 276.5,-32 282.5,-38 282.5,-44 282.5,-44 282.5,-56 282.5,-56 282.5,-62 276.5,-68 270.5,-68"/>
<text text-anchor="middle" x="250" y="-46.5" font-family="Arial" font-size="15.00">version</text>
</g>
<!-- /lib/src/sentry_file.dart&#45;&gt;/lib/src/version.dart -->
<g id="edge5" class="edge">
<title>/lib/src/sentry_file.dart&#45;&gt;/lib/src/version.dart</title>
<path fill="none" stroke="black" stroke-width="1.3" d="M250,-103.7C250,-95.98 250,-86.71 250,-78.11"/>
<polygon fill="black" stroke="black" stroke-width="1.3" points="253.5,-78.1 250,-68.1 246.5,-78.1 253.5,-78.1"/>
</g>
<!-- /lib/src/sentry_io_overrides.dart&#45;&gt;/lib/sentry_file.dart -->
<g id="edge6" class="edge">
<title>/lib/src/sentry_io_overrides.dart&#45;&gt;/lib/sentry_file.dart</title>
<path fill="none" stroke="black" stroke-width="1.3" d="M513.65,-68.04C530.14,-76.2 546.55,-87.82 556,-104 570.8,-129.33 574.73,-147.42 556,-170 545.75,-182.36 508.52,-188.65 476.05,-191.83"/>
<polygon fill="black" stroke="black" stroke-width="1.3" points="475.36,-188.37 465.71,-192.75 475.98,-195.34 475.36,-188.37"/>
</g>
<!-- /lib/src/sentry_io_overrides_integration.dart&#45;&gt;/lib/src/sentry_io_overrides.dart -->
<g id="edge7" class="edge">
<title>/lib/src/sentry_io_overrides_integration.dart&#45;&gt;/lib/src/sentry_io_overrides.dart</title>
<path fill="none" stroke="black" stroke-width="1.3" d="M432.64,-103.7C437.13,-95.64 442.56,-85.89 447.52,-76.98"/>
<polygon fill="black" stroke="black" stroke-width="1.3" points="450.66,-78.54 452.47,-68.1 444.55,-75.14 450.66,-78.54"/>
</g>
<!-- /lib/src/sentry_file_extension.dart&#45;&gt;/lib/sentry_file.dart -->
<g id="edge8" class="edge">
<title>/lib/src/sentry_file_extension.dart&#45;&gt;/lib/sentry_file.dart</title>
<path fill="none" stroke="black" stroke-width="1.3" d="M129.1,-140.16C144.76,-150.57 167.83,-163.12 190,-170 249.54,-188.47 321.72,-193.64 369.92,-194.9"/>
<polygon fill="black" stroke="black" stroke-width="1.3" points="370.06,-198.4 380.13,-195.12 370.21,-191.41 370.06,-198.4"/>
</g>
</g>
</svg>
