<?xml version="1.0" encoding="UTF-8" standalone="no"?>
<!DOCTYPE svg PUBLIC "-//W3C//DTD SVG 1.1//EN"
 "http://www.w3.org/Graphics/SVG/1.1/DTD/svg11.dtd">
<!-- Generated by graphviz version 2.43.0 (0)
 -->
<!-- Pages: 1 -->
<svg width="600pt" height="290pt"
 viewBox="0.00 0.00 600.00 290.00" xmlns="http://www.w3.org/2000/svg" xmlns:xlink="http://www.w3.org/1999/xlink">
<g id="graph0" class="graph" transform="scale(1 1) rotate(0) translate(4 286)">
<polygon fill="white" stroke="transparent" points="-4,4 -4,-286 596,-286 596,4 -4,4"/>
<g id="clust1" class="cluster">
<title>cluster~</title>
<path fill="none" stroke="black" stroke-width="2.6" d="M20,-8C20,-8 572,-8 572,-8 578,-8 584,-14 584,-20 584,-20 584,-262 584,-262 584,-268 578,-274 572,-274 572,-274 20,-274 20,-274 14,-274 8,-268 8,-262 8,-262 8,-20 8,-20 8,-14 14,-8 20,-8"/>
<text text-anchor="middle" x="296" y="-259.6" font-family="Arial Black" font-size="13.00">file</text>
</g>
<g id="clust2" class="cluster">
<title>cluster~/lib</title>
<path fill="none" stroke="black" stroke-width="2.6" d="M28,-16C28,-16 564,-16 564,-16 570,-16 576,-22 576,-28 576,-28 576,-232 576,-232 576,-238 570,-244 564,-244 564,-244 28,-244 28,-244 22,-244 16,-238 16,-232 16,-232 16,-28 16,-28 16,-22 22,-16 28,-16"/>
<text text-anchor="middle" x="296" y="-229.6" font-family="Arial Black" font-size="13.00">lib</text>
</g>
<g id="clust3" class="cluster">
<title>cluster~/lib/src</title>
<path fill="none" stroke="black" stroke-width="2.6" d="M48,-24C48,-24 544,-24 544,-24 550,-24 556,-30 556,-36 556,-36 556,-158 556,-158 556,-164 550,-170 544,-170 544,-170 48,-170 48,-170 42,-170 36,-164 36,-158 36,-158 36,-36 36,-36 36,-30 42,-24 48,-24"/>
<text text-anchor="middle" x="296" y="-155.6" font-family="Arial Black" font-size="13.00">src</text>
</g>
<!-- /lib/src/version.dart -->
<g id="node1" class="node">
<title>/lib/src/version.dart</title>
<path fill="Lavender" stroke="black" stroke-width="1.3" d="M107.5,-68C107.5,-68 66.5,-68 66.5,-68 60.5,-68 54.5,-62 54.5,-56 54.5,-56 54.5,-44 54.5,-44 54.5,-38 60.5,-32 66.5,-32 66.5,-32 107.5,-32 107.5,-32 113.5,-32 119.5,-38 119.5,-44 119.5,-44 119.5,-56 119.5,-56 119.5,-62 113.5,-68 107.5,-68"/>
<text text-anchor="middle" x="87" y="-46.5" font-family="Arial" font-size="15.00">version</text>
</g>
<!-- /lib/src/sentry_io_overrides.dart -->
<g id="node2" class="node">
<title>/lib/src/sentry_io_overrides.dart</title>
<path fill="Lavender" stroke="black" stroke-width="1.3" d="M321.5,-68C321.5,-68 198.5,-68 198.5,-68 192.5,-68 186.5,-62 186.5,-56 186.5,-56 186.5,-44 186.5,-44 186.5,-38 192.5,-32 198.5,-32 198.5,-32 321.5,-32 321.5,-32 327.5,-32 333.5,-38 333.5,-44 333.5,-44 333.5,-56 333.5,-56 333.5,-62 327.5,-68 321.5,-68"/>
<text text-anchor="middle" x="260" y="-46.5" font-family="Arial" font-size="15.00">sentry_io_overrides</text>
</g>
<!-- /lib/sentry_file.dart -->
<g id="node6" class="node">
<title>/lib/sentry_file.dart</title>
<path fill="Lavender" stroke="black" stroke-width="1.3" d="M290.5,-214C290.5,-214 229.5,-214 229.5,-214 223.5,-214 217.5,-208 217.5,-202 217.5,-202 217.5,-190 217.5,-190 217.5,-184 223.5,-178 229.5,-178 229.5,-178 290.5,-178 290.5,-178 296.5,-178 302.5,-184 302.5,-190 302.5,-190 302.5,-202 302.5,-202 302.5,-208 296.5,-214 290.5,-214"/>
<text text-anchor="middle" x="260" y="-192.5" font-family="Arial" font-size="15.00">sentry_file</text>
</g>
<!-- /lib/src/sentry_io_overrides.dart&#45;&gt;/lib/sentry_file.dart -->
<g id="edge1" class="edge">
<title>/lib/src/sentry_io_overrides.dart&#45;&gt;/lib/sentry_file.dart</title>
<path fill="none" stroke="black" stroke-width="1.3" d="M186.48,-63.66C124.58,-75.06 44.62,-91.85 35,-104 16.79,-127 15.44,-148.14 35,-170 46.3,-182.62 144.42,-189.58 207.3,-192.78"/>
<polygon fill="black" stroke="black" stroke-width="1.3" points="207.3,-196.29 217.46,-193.28 207.64,-189.29 207.3,-196.29"/>
</g>
<!-- /lib/src/sentry_io_overrides_integration.dart -->
<g id="node3" class="node">
<title>/lib/src/sentry_io_overrides_integration.dart</title>
<path fill="Lavender" stroke="black" stroke-width="1.3" d="M360.5,-140C360.5,-140 159.5,-140 159.5,-140 153.5,-140 147.5,-134 147.5,-128 147.5,-128 147.5,-116 147.5,-116 147.5,-110 153.5,-104 159.5,-104 159.5,-104 360.5,-104 360.5,-104 366.5,-104 372.5,-110 372.5,-116 372.5,-116 372.5,-128 372.5,-128 372.5,-134 366.5,-140 360.5,-140"/>
<text text-anchor="middle" x="260" y="-118.5" font-family="Arial" font-size="15.00">sentry_io_overrides_integration</text>
</g>
<!-- /lib/src/sentry_io_overrides_integration.dart&#45;&gt;/lib/src/sentry_io_overrides.dart -->
<g id="edge2" class="edge">
<title>/lib/src/sentry_io_overrides_integration.dart&#45;&gt;/lib/src/sentry_io_overrides.dart</title>
<path fill="none" stroke="black" stroke-width="1.3" d="M260,-103.7C260,-95.98 260,-86.71 260,-78.11"/>
<polygon fill="black" stroke="black" stroke-width="1.3" points="263.5,-78.1 260,-68.1 256.5,-78.1 263.5,-78.1"/>
</g>
<!-- /lib/src/sentry_file.dart -->
<g id="node4" class="node">
<title>/lib/src/sentry_file.dart</title>
<path fill="Lavender" stroke="black" stroke-width="1.3" d="M117.5,-140C117.5,-140 56.5,-140 56.5,-140 50.5,-140 44.5,-134 44.5,-128 44.5,-128 44.5,-116 44.5,-116 44.5,-110 50.5,-104 56.5,-104 56.5,-104 117.5,-104 117.5,-104 123.5,-104 129.5,-110 129.5,-116 129.5,-116 129.5,-128 129.5,-128 129.5,-134 123.5,-140 117.5,-140"/>
<text text-anchor="middle" x="87" y="-118.5" font-family="Arial" font-size="15.00">sentry_file</text>
</g>
<!-- /lib/src/sentry_file.dart&#45;&gt;/lib/src/version.dart -->
<g id="edge3" class="edge">
<title>/lib/src/sentry_file.dart&#45;&gt;/lib/src/version.dart</title>
<path fill="none" stroke="black" stroke-width="1.3" d="M87,-103.7C87,-95.98 87,-86.71 87,-78.11"/>
<polygon fill="black" stroke="black" stroke-width="1.3" points="90.5,-78.1 87,-68.1 83.5,-78.1 90.5,-78.1"/>
</g>
<!-- /lib/src/sentry_file_extension.dart -->
<g id="node5" class="node">
<title>/lib/src/sentry_file_extension.dart</title>
<path fill="Lavender" stroke="black" stroke-width="1.3" d="M535.5,-140C535.5,-140 402.5,-140 402.5,-140 396.5,-140 390.5,-134 390.5,-128 390.5,-128 390.5,-116 390.5,-116 390.5,-110 396.5,-104 402.5,-104 402.5,-104 535.5,-104 535.5,-104 541.5,-104 547.5,-110 547.5,-116 547.5,-116 547.5,-128 547.5,-128 547.5,-134 541.5,-140 535.5,-140"/>
<text text-anchor="middle" x="469" y="-118.5" font-family="Arial" font-size="15.00">sentry_file_extension</text>
</g>
<!-- /lib/src/sentry_file_extension.dart&#45;&gt;/lib/sentry_file.dart -->
<g id="edge4" class="edge">
<title>/lib/src/sentry_file_extension.dart&#45;&gt;/lib/sentry_file.dart</title>
<path fill="none" stroke="black" stroke-width="1.3" d="M434.35,-140.18C416.42,-150.19 394.14,-162.32 373,-170 353.62,-177.05 331.75,-182.31 312.39,-186.15"/>
<polygon fill="black" stroke="black" stroke-width="1.3" points="311.7,-182.72 302.53,-188.02 313.01,-189.59 311.7,-182.72"/>
</g>
<!-- /lib/sentry_file.dart&#45;&gt;/lib/src/sentry_io_overrides.dart -->
<g id="edge8" class="edge">
<title>/lib/sentry_file.dart&#45;&gt;/lib/src/sentry_io_overrides.dart</title>
<path fill="none" stroke="black" stroke-width="1.3" stroke-dasharray="5,2" d="M302.64,-194.53C380.71,-193.23 540.15,-188.33 557,-170 576.85,-148.41 575.83,-126.49 557,-104 530.25,-72.05 422.03,-59.34 343.94,-54.3"/>
<polygon fill="black" stroke="black" stroke-width="1.3" points="343.81,-50.79 333.61,-53.67 343.38,-57.77 343.81,-50.79"/>
</g>
<!-- /lib/sentry_file.dart&#45;&gt;/lib/src/sentry_io_overrides_integration.dart -->
<g id="edge7" class="edge">
<title>/lib/sentry_file.dart&#45;&gt;/lib/src/sentry_io_overrides_integration.dart</title>
<path fill="none" stroke="black" stroke-width="1.3" stroke-dasharray="5,2" d="M260,-177.94C260,-169.81 260,-159.88 260,-150.7"/>
<polygon fill="black" stroke="black" stroke-width="1.3" points="263.5,-150.44 260,-140.44 256.5,-150.44 263.5,-150.44"/>
</g>
<!-- /lib/sentry_file.dart&#45;&gt;/lib/src/sentry_file.dart -->
<g id="edge5" class="edge">
<title>/lib/sentry_file.dart&#45;&gt;/lib/src/sentry_file.dart</title>
<path fill="none" stroke="black" stroke-width="1.3" stroke-dasharray="5,2" d="M217.3,-191.74C193.27,-188.57 163.3,-182.32 139,-170 127.92,-164.38 117.41,-155.77 108.77,-147.44"/>
<polygon fill="black" stroke="black" stroke-width="1.3" points="111.22,-144.94 101.7,-140.29 106.24,-149.86 111.22,-144.94"/>
</g>
<!-- /lib/sentry_file.dart&#45;&gt;/lib/src/sentry_file_extension.dart -->
<g id="edge6" class="edge">
<title>/lib/sentry_file.dart&#45;&gt;/lib/src/sentry_file_extension.dart</title>
<path fill="none" stroke="black" stroke-width="1.3" stroke-dasharray="5,2" d="M302.73,-190.58C328.97,-186.8 362.65,-180.31 391,-170 408.5,-163.64 426.79,-154.23 441.38,-145.49"/>
<polygon fill="black" stroke="black" stroke-width="1.3" points="443.29,-148.43 449.94,-140.18 439.6,-142.48 443.29,-148.43"/>
</g>
</g>
</svg>
