<?xml version="1.0" encoding="UTF-8" standalone="no"?>
<!DOCTYPE svg PUBLIC "-//W3C//DTD SVG 1.1//EN"
 "http://www.w3.org/Graphics/SVG/1.1/DTD/svg11.dtd">
<!-- Generated by graphviz version 2.43.0 (0)
 -->
<!-- Pages: 1 -->
<svg width="1249pt" height="362pt"
 viewBox="0.00 0.00 1249.00 362.00" xmlns="http://www.w3.org/2000/svg" xmlns:xlink="http://www.w3.org/1999/xlink">
<g id="graph0" class="graph" transform="scale(1 1) rotate(0) translate(4 358)">
<polygon fill="white" stroke="transparent" points="-4,4 -4,-358 1245,-358 1245,4 -4,4"/>
<g id="clust1" class="cluster">
<title>cluster~</title>
<path fill="none" stroke="black" stroke-width="2.6" d="M20,-8C20,-8 1221,-8 1221,-8 1227,-8 1233,-14 1233,-20 1233,-20 1233,-334 1233,-334 1233,-340 1227,-346 1221,-346 1221,-346 20,-346 20,-346 14,-346 8,-340 8,-334 8,-334 8,-20 8,-20 8,-14 14,-8 20,-8"/>
<text text-anchor="middle" x="620.5" y="-331.6" font-family="Arial Black" font-size="13.00">dio</text>
</g>
<g id="clust2" class="cluster">
<title>cluster~/lib</title>
<path fill="none" stroke="black" stroke-width="2.6" d="M28,-16C28,-16 1213,-16 1213,-16 1219,-16 1225,-22 1225,-28 1225,-28 1225,-304 1225,-304 1225,-310 1219,-316 1213,-316 1213,-316 28,-316 28,-316 22,-316 16,-310 16,-304 16,-304 16,-28 16,-28 16,-22 22,-16 28,-16"/>
<text text-anchor="middle" x="620.5" y="-301.6" font-family="Arial Black" font-size="13.00">lib</text>
</g>
<g id="clust3" class="cluster">
<title>cluster~/lib/src</title>
<path fill="none" stroke="black" stroke-width="2.6" d="M36,-24C36,-24 1205,-24 1205,-24 1211,-24 1217,-30 1217,-36 1217,-36 1217,-230 1217,-230 1217,-236 1211,-242 1205,-242 1205,-242 36,-242 36,-242 30,-242 24,-236 24,-230 24,-230 24,-36 24,-36 24,-30 30,-24 36,-24"/>
<text text-anchor="middle" x="620.5" y="-227.6" font-family="Arial Black" font-size="13.00">src</text>
</g>
<!-- /lib/sentry_dio.dart -->
<g id="node1" class="node">
<title>/lib/sentry_dio.dart</title>
<path fill="Lavender" stroke="black" stroke-width="1.3" d="M435,-286C435,-286 373,-286 373,-286 367,-286 361,-280 361,-274 361,-274 361,-262 361,-262 361,-256 367,-250 373,-250 373,-250 435,-250 435,-250 441,-250 447,-256 447,-262 447,-262 447,-274 447,-274 447,-280 441,-286 435,-286"/>
<text text-anchor="middle" x="404" y="-264.5" font-family="Arial" font-size="15.00">sentry_dio</text>
</g>
<!-- /lib/src/dio_event_processor.dart -->
<g id="node4" class="node">
<title>/lib/src/dio_event_processor.dart</title>
<path fill="Lavender" stroke="black" stroke-width="1.3" d="M175.5,-140C175.5,-140 44.5,-140 44.5,-140 38.5,-140 32.5,-134 32.5,-128 32.5,-128 32.5,-116 32.5,-116 32.5,-110 38.5,-104 44.5,-104 44.5,-104 175.5,-104 175.5,-104 181.5,-104 187.5,-110 187.5,-116 187.5,-116 187.5,-128 187.5,-128 187.5,-134 181.5,-140 175.5,-140"/>
<text text-anchor="middle" x="110" y="-118.5" font-family="Arial" font-size="15.00">dio_event_processor</text>
</g>
<!-- /lib/sentry_dio.dart&#45;&gt;/lib/src/dio_event_processor.dart -->
<g id="edge2" class="edge">
<title>/lib/sentry_dio.dart&#45;&gt;/lib/src/dio_event_processor.dart</title>
<path fill="none" stroke="black" stroke-width="1.3" stroke-dasharray="5,2" d="M369.12,-249.92C315.41,-223.61 212.54,-173.22 153.86,-144.48"/>
<polygon fill="black" stroke="black" stroke-width="1.3" points="155.35,-141.32 144.83,-140.06 152.28,-147.6 155.35,-141.32"/>
</g>
<!-- /lib/src/sentry_dio_extension.dart -->
<g id="node11" class="node">
<title>/lib/src/sentry_dio_extension.dart</title>
<path fill="Lavender" stroke="black" stroke-width="1.3" d="M640,-212C640,-212 506,-212 506,-212 500,-212 494,-206 494,-200 494,-200 494,-188 494,-188 494,-182 500,-176 506,-176 506,-176 640,-176 640,-176 646,-176 652,-182 652,-188 652,-188 652,-200 652,-200 652,-206 646,-212 640,-212"/>
<text text-anchor="middle" x="573" y="-190.5" font-family="Arial" font-size="15.00">sentry_dio_extension</text>
</g>
<!-- /lib/sentry_dio.dart&#45;&gt;/lib/src/sentry_dio_extension.dart -->
<g id="edge1" class="edge">
<title>/lib/sentry_dio.dart&#45;&gt;/lib/src/sentry_dio_extension.dart</title>
<path fill="none" stroke="black" stroke-width="1.3" stroke-dasharray="5,2" d="M447.11,-256.58C461.04,-252.66 476.39,-247.74 490,-242 506.3,-235.13 523.45,-225.8 537.9,-217.28"/>
<polygon fill="black" stroke="black" stroke-width="1.3" points="539.75,-220.25 546.52,-212.1 536.14,-214.25 539.75,-220.25"/>
</g>
<!-- /lib/src/failed_request_interceptor.dart -->
<g id="node2" class="node">
<title>/lib/src/failed_request_interceptor.dart</title>
<path fill="Lavender" stroke="black" stroke-width="1.3" d="M1197,-140C1197,-140 1031,-140 1031,-140 1025,-140 1019,-134 1019,-128 1019,-128 1019,-116 1019,-116 1019,-110 1025,-104 1031,-104 1031,-104 1197,-104 1197,-104 1203,-104 1209,-110 1209,-116 1209,-116 1209,-128 1209,-128 1209,-134 1203,-140 1197,-140"/>
<text text-anchor="middle" x="1114" y="-118.5" font-family="Arial" font-size="15.00">failed_request_interceptor</text>
</g>
<!-- /lib/src/sentry_dio_client_adapter.dart -->
<g id="node3" class="node">
<title>/lib/src/sentry_dio_client_adapter.dart</title>
<path fill="Lavender" stroke="black" stroke-width="1.3" d="M382,-140C382,-140 218,-140 218,-140 212,-140 206,-134 206,-128 206,-128 206,-116 206,-116 206,-110 212,-104 218,-104 218,-104 382,-104 382,-104 388,-104 394,-110 394,-116 394,-116 394,-128 394,-128 394,-134 388,-140 382,-140"/>
<text text-anchor="middle" x="300" y="-118.5" font-family="Arial" font-size="15.00">sentry_dio_client_adapter</text>
</g>
<!-- /lib/src/breadcrumb_client_adapter.dart -->
<g id="node6" class="node">
<title>/lib/src/breadcrumb_client_adapter.dart</title>
<path fill="Lavender" stroke="black" stroke-width="1.3" d="M303.5,-68C303.5,-68 128.5,-68 128.5,-68 122.5,-68 116.5,-62 116.5,-56 116.5,-56 116.5,-44 116.5,-44 116.5,-38 122.5,-32 128.5,-32 128.5,-32 303.5,-32 303.5,-32 309.5,-32 315.5,-38 315.5,-44 315.5,-44 315.5,-56 315.5,-56 315.5,-62 309.5,-68 303.5,-68"/>
<text text-anchor="middle" x="216" y="-46.5" font-family="Arial" font-size="15.00">breadcrumb_client_adapter</text>
</g>
<!-- /lib/src/sentry_dio_client_adapter.dart&#45;&gt;/lib/src/breadcrumb_client_adapter.dart -->
<g id="edge3" class="edge">
<title>/lib/src/sentry_dio_client_adapter.dart&#45;&gt;/lib/src/breadcrumb_client_adapter.dart</title>
<path fill="none" stroke="black" stroke-width="1.3" d="M279.24,-103.7C268.76,-94.97 255.89,-84.24 244.5,-74.75"/>
<polygon fill="black" stroke="black" stroke-width="1.3" points="246.45,-71.82 236.53,-68.1 241.97,-77.19 246.45,-71.82"/>
</g>
<!-- /lib/src/tracing_client_adapter.dart -->
<g id="node7" class="node">
<title>/lib/src/tracing_client_adapter.dart</title>
<path fill="Lavender" stroke="black" stroke-width="1.3" d="M486,-68C486,-68 346,-68 346,-68 340,-68 334,-62 334,-56 334,-56 334,-44 334,-44 334,-38 340,-32 346,-32 346,-32 486,-32 486,-32 492,-32 498,-38 498,-44 498,-44 498,-56 498,-56 498,-62 492,-68 486,-68"/>
<text text-anchor="middle" x="416" y="-46.5" font-family="Arial" font-size="15.00">tracing_client_adapter</text>
</g>
<!-- /lib/src/sentry_dio_client_adapter.dart&#45;&gt;/lib/src/tracing_client_adapter.dart -->
<g id="edge4" class="edge">
<title>/lib/src/sentry_dio_client_adapter.dart&#45;&gt;/lib/src/tracing_client_adapter.dart</title>
<path fill="none" stroke="black" stroke-width="1.3" d="M328.38,-103.88C343.54,-94.72 362.41,-83.34 378.74,-73.48"/>
<polygon fill="black" stroke="black" stroke-width="1.3" points="380.76,-76.35 387.51,-68.19 377.14,-70.36 380.76,-76.35"/>
</g>
<!-- /lib/src/dio_stacktrace_extractor.dart -->
<g id="node5" class="node">
<title>/lib/src/dio_stacktrace_extractor.dart</title>
<path fill="Lavender" stroke="black" stroke-width="1.3" d="M581.5,-140C581.5,-140 424.5,-140 424.5,-140 418.5,-140 412.5,-134 412.5,-128 412.5,-128 412.5,-116 412.5,-116 412.5,-110 418.5,-104 424.5,-104 424.5,-104 581.5,-104 581.5,-104 587.5,-104 593.5,-110 593.5,-116 593.5,-116 593.5,-128 593.5,-128 593.5,-134 587.5,-140 581.5,-140"/>
<text text-anchor="middle" x="503" y="-118.5" font-family="Arial" font-size="15.00">dio_stacktrace_extractor</text>
</g>
<!-- /lib/src/version.dart -->
<g id="node8" class="node">
<title>/lib/src/version.dart</title>
<path fill="Lavender" stroke="black" stroke-width="1.3" d="M664.5,-140C664.5,-140 623.5,-140 623.5,-140 617.5,-140 611.5,-134 611.5,-128 611.5,-128 611.5,-116 611.5,-116 611.5,-110 617.5,-104 623.5,-104 623.5,-104 664.5,-104 664.5,-104 670.5,-104 676.5,-110 676.5,-116 676.5,-116 676.5,-128 676.5,-128 676.5,-134 670.5,-140 664.5,-140"/>
<text text-anchor="middle" x="644" y="-118.5" font-family="Arial" font-size="15.00">version</text>
</g>
<!-- /lib/src/dio_error_extractor.dart -->
<g id="node9" class="node">
<title>/lib/src/dio_error_extractor.dart</title>
<path fill="Lavender" stroke="black" stroke-width="1.3" d="M827,-140C827,-140 707,-140 707,-140 701,-140 695,-134 695,-128 695,-128 695,-116 695,-116 695,-110 701,-104 707,-104 707,-104 827,-104 827,-104 833,-104 839,-110 839,-116 839,-116 839,-128 839,-128 839,-134 833,-140 827,-140"/>
<text text-anchor="middle" x="767" y="-118.5" font-family="Arial" font-size="15.00">dio_error_extractor</text>
</g>
<!-- /lib/src/sentry_transformer.dart -->
<g id="node10" class="node">
<title>/lib/src/sentry_transformer.dart</title>
<path fill="Lavender" stroke="black" stroke-width="1.3" d="M989,-140C989,-140 869,-140 869,-140 863,-140 857,-134 857,-128 857,-128 857,-116 857,-116 857,-110 863,-104 869,-104 869,-104 989,-104 989,-104 995,-104 1001,-110 1001,-116 1001,-116 1001,-128 1001,-128 1001,-134 995,-140 989,-140"/>
<text text-anchor="middle" x="929" y="-118.5" font-family="Arial" font-size="15.00">sentry_transformer</text>
</g>
<!-- /lib/src/sentry_dio_extension.dart&#45;&gt;/lib/src/failed_request_interceptor.dart -->
<g id="edge8" class="edge">
<title>/lib/src/sentry_dio_extension.dart&#45;&gt;/lib/src/failed_request_interceptor.dart</title>
<path fill="none" stroke="black" stroke-width="1.3" d="M652.07,-184.4C737.48,-174.9 877.81,-158.62 1008.61,-140.17"/>
<polygon fill="black" stroke="black" stroke-width="1.3" points="1009.4,-143.59 1018.81,-138.72 1008.42,-136.66 1009.4,-143.59"/>
</g>
<!-- /lib/src/sentry_dio_extension.dart&#45;&gt;/lib/src/sentry_dio_client_adapter.dart -->
<g id="edge10" class="edge">
<title>/lib/src/sentry_dio_extension.dart&#45;&gt;/lib/src/sentry_dio_client_adapter.dart</title>
<path fill="none" stroke="black" stroke-width="1.3" d="M506.57,-175.97C467.34,-165.91 417.53,-153.14 376.65,-142.65"/>
<polygon fill="black" stroke="black" stroke-width="1.3" points="377.29,-139.2 366.73,-140.11 375.55,-145.98 377.29,-139.2"/>
</g>
<!-- /lib/src/sentry_dio_extension.dart&#45;&gt;/lib/src/dio_event_processor.dart -->
<g id="edge6" class="edge">
<title>/lib/src/sentry_dio_extension.dart&#45;&gt;/lib/src/dio_event_processor.dart</title>
<path fill="none" stroke="black" stroke-width="1.3" d="M493.95,-176.66C492.62,-176.43 491.31,-176.21 490,-176 363.68,-155.34 328.29,-160.33 197.72,-140.04"/>
<polygon fill="black" stroke="black" stroke-width="1.3" points="198.16,-136.57 187.74,-138.47 197.07,-143.49 198.16,-136.57"/>
</g>
<!-- /lib/src/sentry_dio_extension.dart&#45;&gt;/lib/src/dio_stacktrace_extractor.dart -->
<g id="edge7" class="edge">
<title>/lib/src/sentry_dio_extension.dart&#45;&gt;/lib/src/dio_stacktrace_extractor.dart</title>
<path fill="none" stroke="black" stroke-width="1.3" d="M555.7,-175.7C547.14,-167.14 536.66,-156.66 527.3,-147.3"/>
<polygon fill="black" stroke="black" stroke-width="1.3" points="529.65,-144.7 520.1,-140.1 524.7,-149.65 529.65,-144.7"/>
</g>
<!-- /lib/src/sentry_dio_extension.dart&#45;&gt;/lib/src/version.dart -->
<g id="edge11" class="edge">
<title>/lib/src/sentry_dio_extension.dart&#45;&gt;/lib/src/version.dart</title>
<path fill="none" stroke="black" stroke-width="1.3" d="M590.55,-175.7C599.23,-167.14 609.86,-156.66 619.35,-147.3"/>
<polygon fill="black" stroke="black" stroke-width="1.3" points="621.99,-149.62 626.65,-140.1 617.07,-144.63 621.99,-149.62"/>
</g>
<!-- /lib/src/sentry_dio_extension.dart&#45;&gt;/lib/src/dio_error_extractor.dart -->
<g id="edge5" class="edge">
<title>/lib/src/sentry_dio_extension.dart&#45;&gt;/lib/src/dio_error_extractor.dart</title>
<path fill="none" stroke="black" stroke-width="1.3" d="M620.46,-175.88C647.57,-166.09 681.74,-153.77 710.26,-143.47"/>
<polygon fill="black" stroke="black" stroke-width="1.3" points="711.48,-146.75 719.7,-140.07 709.1,-140.17 711.48,-146.75"/>
</g>
<!-- /lib/src/sentry_dio_extension.dart&#45;&gt;/lib/src/sentry_transformer.dart -->
<g id="edge9" class="edge">
<title>/lib/src/sentry_dio_extension.dart&#45;&gt;/lib/src/sentry_transformer.dart</title>
<path fill="none" stroke="black" stroke-width="1.3" d="M652.19,-178.1C704.71,-168.13 775.41,-154.55 846.55,-140.28"/>
<polygon fill="black" stroke="black" stroke-width="1.3" points="847.47,-143.66 856.59,-138.26 846.1,-136.8 847.47,-143.66"/>
</g>
</g>
</svg>
